<?xml version="1.0" encoding="UTF-8" standalone="no"?>
<!-- Created with Inkscape (http://www.inkscape.org/) -->

<svg
   xmlns:dc="http://purl.org/dc/elements/1.1/"
   xmlns:cc="http://creativecommons.org/ns#"
   xmlns:rdf="http://www.w3.org/1999/02/22-rdf-syntax-ns#"
   xmlns:svg="http://www.w3.org/2000/svg"
   xmlns="http://www.w3.org/2000/svg"
   xmlns:xlink="http://www.w3.org/1999/xlink"
   xmlns:sodipodi="http://sodipodi.sourceforge.net/DTD/sodipodi-0.dtd"
   xmlns:inkscape="http://www.inkscape.org/namespaces/inkscape"
   width="48"
   height="48"
   viewBox="0 0 48 48"
   id="svg6499"
   version="1.1"
   inkscape:version="0.91 r13725"
   sodipodi:docname="player1.svg">
  <defs
     id="defs6501">
    <linearGradient
       y2="102.90022"
       x2="66.675491"
       y1="102.90022"
       x1="58.708344"
       gradientTransform="matrix(1.004123,0,0,1.017124,-125.9504,-1.512017)"
       gradientUnits="userSpaceOnUse"
       id="linearGradient3709"
       xlink:href="#linearGradient3447"
       inkscape:collect="always" />
    <linearGradient
       id="linearGradient3447">
      <stop
         style="stop-color:#555555;stop-opacity:1;"
         offset="0"
         id="stop3449" />
      <stop
         style="stop-color:#dddddd;stop-opacity:1;"
         offset="1"
         id="stop3451" />
    </linearGradient>
    <radialGradient
       r="17.5"
       fy="98.126595"
       fx="71.148651"
       cy="98.126595"
       cx="71.148651"
       gradientTransform="matrix(0.978562,-0.627249,0.772132,1.204593,-73.48731,27.69053)"
       gradientUnits="userSpaceOnUse"
       id="radialGradient3711"
       xlink:href="#linearGradient3447"
       inkscape:collect="always" />
    <linearGradient
       y2="104.5"
       x2="81"
       y1="104.5"
       x1="44"
       gradientTransform="translate(-125,0)"
       gradientUnits="userSpaceOnUse"
       id="linearGradient3713"
       xlink:href="#linearGradient3447"
       inkscape:collect="always" />
    <linearGradient
       y2="74"
       x2="61.163944"
       y1="77"
       x1="61.131393"
       gradientTransform="matrix(1,0,0,0.666667,363.2143,210.386)"
       gradientUnits="userSpaceOnUse"
       id="linearGradient3715"
       xlink:href="#linearGradient3447"
       inkscape:collect="always" />
    <linearGradient
       y2="167.66455"
       x2="84.153259"
       y1="145.94389"
       x1="51.516388"
       gradientUnits="userSpaceOnUse"
       id="linearGradient3717"
       xlink:href="#linearGradient3977"
       inkscape:collect="always" />
    <linearGradient
       id="linearGradient3977">
      <stop
         id="stop3979"
         offset="0"
         style="stop-color:#3a0300;stop-opacity:1;" />
      <stop
         id="stop3981"
         offset="1"
         style="stop-color:#8f6b32;stop-opacity:1;" />
    </linearGradient>
    <linearGradient
       y2="139.09229"
       x2="58.059338"
       y1="154.56549"
       x1="60.065506"
       gradientUnits="userSpaceOnUse"
       id="linearGradient3719"
       xlink:href="#linearGradient3987"
       inkscape:collect="always"
       gradientTransform="translate(0.190651,3.35445e-6)" />
    <linearGradient
       id="linearGradient3987">
      <stop
         id="stop3989"
         offset="0"
         style="stop-color:#f30005;stop-opacity:1;" />
      <stop
         id="stop3991"
         offset="1"
         style="stop-color:#f99;stop-opacity:1;" />
    </linearGradient>
    <linearGradient
       y2="56.183369"
       x2="60.371979"
       y1="41.983879"
       x1="50.670616"
       gradientTransform="matrix(1,0,0,1.704762,361.215,174.9507)"
       gradientUnits="userSpaceOnUse"
       id="linearGradient3721"
       xlink:href="#linearGradient3660"
       inkscape:collect="always" />
    <linearGradient
       id="linearGradient3660"
       inkscape:collect="always">
      <stop
         id="stop3662"
         offset="0"
         style="stop-color:#eeeeec;stop-opacity:1;" />
      <stop
         id="stop3664"
         offset="1"
         style="stop-color:#eeeeec;stop-opacity:0;" />
    </linearGradient>
    <radialGradient
       r="3.7233527"
       fy="11.343663"
       fx="23.54048"
       cy="11.343663"
       cx="23.54048"
       gradientTransform="matrix(2.15627,0,0,1.808767,-27.54317,-9.611981)"
       gradientUnits="userSpaceOnUse"
       id="radialGradient3723"
       xlink:href="#linearGradient4189"
       inkscape:collect="always" />
    <linearGradient
       id="linearGradient4189">
      <stop
         id="stop4191"
         offset="0"
         style="stop-color:#dddddd;stop-opacity:1;" />
      <stop
         id="stop4193"
         offset="1"
         style="stop-color:#555555;stop-opacity:1;" />
    </linearGradient>
    <radialGradient
       r="17.5"
       fy="90.541489"
       fx="62.5"
       cy="90.541489"
       cx="62.5"
       gradientTransform="matrix(0.20203,-0.20203,-0.179794,-0.179794,54.30875,69.977)"
       gradientUnits="userSpaceOnUse"
       id="radialGradient3725"
       xlink:href="#linearGradient3447"
       inkscape:collect="always" />
    <linearGradient
       y2="50.261288"
       x2="26.889061"
       y1="52.917656"
       x1="26.980202"
       gradientTransform="translate(30.44587,-1.000001)"
       gradientUnits="userSpaceOnUse"
       id="linearGradient3727"
       xlink:href="#linearGradient3447"
       inkscape:collect="always" />
    <linearGradient
       y2="50.261288"
       x2="26.889061"
       y1="52.917656"
       x1="26.980202"
       gradientTransform="matrix(-1,0,0,1,94.47428,-1.000001)"
       gradientUnits="userSpaceOnUse"
       id="linearGradient3729"
       xlink:href="#linearGradient3447"
       inkscape:collect="always" />
    <linearGradient
       y2="50.261288"
       x2="26.889061"
       y1="52.917656"
       x1="26.980202"
       gradientTransform="translate(53.97159,-13)"
       gradientUnits="userSpaceOnUse"
       id="linearGradient3731"
       xlink:href="#linearGradient3447"
       inkscape:collect="always" />
    <linearGradient
       y2="50.261288"
       x2="26.889061"
       y1="52.917656"
       x1="26.980202"
       gradientTransform="matrix(-1,0,0,1,118,-13)"
       gradientUnits="userSpaceOnUse"
       id="linearGradient3733"
       xlink:href="#linearGradient3447"
       inkscape:collect="always" />
    <linearGradient
       y2="57.5"
       x2="50.522579"
       y1="62.46595"
       x1="52.670616"
       gradientTransform="matrix(1,0,0,1.5,35.97427,-49.25)"
       gradientUnits="userSpaceOnUse"
       id="linearGradient3735"
       xlink:href="#linearGradient3447"
       inkscape:collect="always" />
    <radialGradient
       r="2.0043497"
       fy="59.006905"
       fx="56.966999"
       cy="59.006905"
       cx="56.966999"
       gradientUnits="userSpaceOnUse"
       id="radialGradient3737"
       xlink:href="#linearGradient3627"
       inkscape:collect="always" />
    <linearGradient
       id="linearGradient3627"
       inkscape:collect="always">
      <stop
         id="stop3629"
         offset="0"
         style="stop-color:#000000;stop-opacity:1;" />
      <stop
         id="stop3631"
         offset="1"
         style="stop-color:#000000;stop-opacity:0;" />
    </linearGradient>
    <linearGradient
       y2="50.483578"
       x2="63.618992"
       y1="52.695686"
       x1="63.677204"
       gradientTransform="matrix(0,-1,-1,0,114.4601,109.0142)"
       gradientUnits="userSpaceOnUse"
       id="linearGradient3739"
       xlink:href="#linearGradient3447"
       inkscape:collect="always" />
    <linearGradient
       y2="50.261288"
       x2="26.889061"
       y1="52.917656"
       x1="26.980202"
       gradientTransform="matrix(0,-1,-1,0,114.4601,83.0142)"
       gradientUnits="userSpaceOnUse"
       id="linearGradient3741"
       xlink:href="#linearGradient3447"
       inkscape:collect="always" />
    <linearGradient
       y2="57.5"
       x2="50.522579"
       y1="62.46595"
       x1="52.670616"
       gradientTransform="matrix(1.249999,0,0,1.5,-1.874983,-38.25)"
       gradientUnits="userSpaceOnUse"
       id="linearGradient3743"
       xlink:href="#linearGradient3447"
       inkscape:collect="always" />
    <radialGradient
       r="2.0043497"
       fy="59.006905"
       fx="56.966999"
       cy="59.006905"
       cx="56.966999"
       gradientUnits="userSpaceOnUse"
       id="radialGradient3751"
       xlink:href="#linearGradient3627"
       inkscape:collect="always" />
    <radialGradient
       r="3.5346851"
       fy="10.41393"
       fx="23.169577"
       cy="10.41393"
       cx="23.169577"
       gradientTransform="matrix(2,-8.581504e-8,8.412132e-8,1.960526,-23.8207,-11.4156)"
       gradientUnits="userSpaceOnUse"
       id="radialGradient3753"
       xlink:href="#linearGradient4189"
       inkscape:collect="always" />
    <radialGradient
       r="2.3422911"
       fy="66.146355"
       fx="59.689133"
       cy="66.146355"
       cx="59.689133"
       gradientTransform="matrix(1.52289,-0.168978,0.166324,1.498972,-42.5431,-23.26626)"
       gradientUnits="userSpaceOnUse"
       id="radialGradient3755"
       xlink:href="#linearGradient4189"
       inkscape:collect="always" />
    <radialGradient
       r="1.1642675"
       fy="17.414965"
       fx="69.175743"
       cy="17.414965"
       cx="69.175743"
       gradientTransform="matrix(1.943685,-0.05157537,0.01943826,3.377656,-65.56302,-38.75915)"
       gradientUnits="userSpaceOnUse"
       id="radialGradient3757"
       xlink:href="#linearGradient4189"
       inkscape:collect="always" />
    <linearGradient
       y2="87.137817"
       x2="65.542374"
       y1="40.55201"
       x1="63.5"
       gradientUnits="userSpaceOnUse"
       id="linearGradient3759"
       xlink:href="#linearGradient3977"
       inkscape:collect="always" />
    <linearGradient
       inkscape:collect="always"
       xlink:href="#linearGradient3447"
       id="linearGradient7605"
       gradientUnits="userSpaceOnUse"
       gradientTransform="translate(53.97159,-13)"
       x1="26.980202"
       y1="52.917656"
       x2="26.889061"
       y2="50.261288" />
    <linearGradient
       inkscape:collect="always"
       xlink:href="#linearGradient3447"
       id="linearGradient7607"
       gradientUnits="userSpaceOnUse"
       gradientTransform="matrix(-1,0,0,1,118,-13)"
       x1="26.980202"
       y1="52.917656"
       x2="26.889061"
       y2="50.261288" />
    <linearGradient
       inkscape:collect="always"
       xlink:href="#linearGradient3447"
       id="linearGradient7609"
       gradientUnits="userSpaceOnUse"
       gradientTransform="matrix(1,0,0,1.5,35.97427,-49.25)"
       x1="52.670616"
       y1="62.46595"
       x2="50.522579"
       y2="57.5" />
  </defs>
  <sodipodi:namedview
     id="base"
     pagecolor="#ffffff"
     bordercolor="#666666"
     borderopacity="1.0"
     inkscape:pageopacity="0.0"
     inkscape:pageshadow="2"
     inkscape:zoom="3.959798"
     inkscape:cx="39.778912"
     inkscape:cy="68.179756"
     inkscape:document-units="px"
     inkscape:current-layer="layer1"
     showgrid="false"
     units="px"
     inkscape:window-width="1279"
     inkscape:window-height="1415"
     inkscape:window-x="1280"
     inkscape:window-y="0"
     inkscape:window-maximized="0" />
  <metadata
     id="metadata6504">
    <rdf:RDF>
      <cc:Work
         rdf:about="">
        <dc:format>image/svg+xml</dc:format>
        <dc:type
           rdf:resource="http://purl.org/dc/dcmitype/StillImage" />
        <dc:title></dc:title>
      </cc:Work>
    </rdf:RDF>
  </metadata>
  <g
     inkscape:label="Layer 1"
     inkscape:groupmode="layer"
     id="layer1"
     transform="translate(0,-1004.3622)">
    <g
       transform="matrix(0,0.352736,-0.352736,0,119.25914,878.40672)"
       id="ship_red"
       inkscape:label="Layer 1">
      <g
         transform="translate(-4.433594e-6,12)"
         id="g3628">
        <g
           id="g5571"
           transform="translate(361.2143,189.7193)">
          <rect
             transform="scale(-1,1)"
             y="88.300438"
             x="-67"
             height="29.699562"
             width="8"
             id="rect2209"
             style="fill:url(#linearGradient3709);fill-opacity:1;stroke:none;stroke-width:1;stroke-linecap:square;stroke-linejoin:miter;stroke-miterlimit:4;stroke-dasharray:none;stroke-dashoffset:0;stroke-opacity:1" />
          <g
             id="g5561">
            <path
               style="fill:url(#radialGradient3711);fill-opacity:1;stroke:none;stroke-width:1;stroke-linecap:square;stroke-linejoin:miter;stroke-miterlimit:4;stroke-dasharray:none;stroke-dashoffset:0;stroke-opacity:1"
               d="M 62.050347,96.342152 C 52.956737,96.702405 48.41789,99.823607 44,104 l 18.5,0 18.5,0 c -4.41789,-4.176393 -8.956737,-7.297595 -18.050347,-7.657848 -0.151352,0 -0.299234,-0.0017 -0.449653,0 -0.150419,-0.0017 -0.298301,0 -0.449653,0 z"
               id="path2248"
               inkscape:connector-curvature="0" />
            <path
               sodipodi:nodetypes="cccc"
               id="path3773"
               d="m 53.5,97.499996 5,0 -5,-9 0,9 z"
               style="fill:none;fill-opacity:1;stroke:#d3d7cf;stroke-width:0.99999994;stroke-linecap:square;stroke-linejoin:miter;stroke-miterlimit:4;stroke-dashoffset:0;stroke-opacity:1"
               inkscape:connector-curvature="0" />
            <path
               style="fill:none;fill-opacity:1;stroke:#d3d7cf;stroke-width:0.99999994;stroke-linecap:square;stroke-linejoin:miter;stroke-miterlimit:4;stroke-dashoffset:0;stroke-opacity:1"
               d="m 59.5,97.499996 -5,0 5,-9 0,9 z"
               id="path3775"
               sodipodi:nodetypes="cccc"
               inkscape:connector-curvature="0" />
            <path
               style="fill:none;fill-opacity:1;stroke:#d3d7cf;stroke-width:0.99999994;stroke-linecap:square;stroke-linejoin:miter;stroke-miterlimit:4;stroke-dashoffset:0;stroke-opacity:1"
               d="m 59.5,97.499996 5,0 -5,-9 0,9 z"
               id="path3777"
               sodipodi:nodetypes="cccc"
               inkscape:connector-curvature="0" />
            <path
               sodipodi:nodetypes="cccc"
               id="path3779"
               d="m 65.5,97.499996 -5,0 5,-9 0,9 z"
               style="fill:none;fill-opacity:1;stroke:#d3d7cf;stroke-width:0.99999994;stroke-linecap:square;stroke-linejoin:miter;stroke-miterlimit:4;stroke-dashoffset:0;stroke-opacity:1"
               inkscape:connector-curvature="0" />
            <path
               sodipodi:nodetypes="cccc"
               id="path3781"
               d="m 65.5,97.499996 5,0 -5,-9 0,9 z"
               style="fill:none;fill-opacity:1;stroke:#d3d7cf;stroke-width:0.99999994;stroke-linecap:square;stroke-linejoin:miter;stroke-miterlimit:4;stroke-dashoffset:0;stroke-opacity:1"
               inkscape:connector-curvature="0" />
            <path
               style="fill:none;fill-opacity:1;stroke:#d3d7cf;stroke-width:0.99999994;stroke-linecap:square;stroke-linejoin:miter;stroke-miterlimit:4;stroke-dashoffset:0;stroke-opacity:1"
               d="m 71.5,97.499996 -5,0 5,-9 0,9 z"
               id="path3783"
               sodipodi:nodetypes="cccc"
               inkscape:connector-curvature="0" />
            <rect
               style="fill:url(#linearGradient3713);fill-opacity:1;stroke:none;stroke-width:1;stroke-linecap:square;stroke-linejoin:miter;stroke-miterlimit:4;stroke-dasharray:none;stroke-dashoffset:0;stroke-opacity:1"
               id="rect3797"
               width="37"
               height="1"
               x="-81"
               y="104"
               transform="scale(-1,1)" />
          </g>
        </g>
        <rect
           style="fill:url(#linearGradient3715);fill-opacity:1;stroke:none;stroke-width:1;stroke-linecap:square;stroke-linejoin:miter;stroke-miterlimit:4;stroke-dasharray:none;stroke-dashoffset:0;stroke-opacity:1"
           id="rect3749"
           width="35"
           height="2"
           x="408.21429"
           y="259.71933" />
        <rect
           style="fill:#9c0f0f;fill-opacity:1;stroke:none;stroke-width:0.99999988;stroke-linecap:square;stroke-linejoin:miter;stroke-miterlimit:4;stroke-dasharray:none;stroke-dashoffset:0;stroke-opacity:1"
           id="rect4155"
           width="48"
           height="17"
           x="360.21429"
           y="252.71933" />
        <rect
           y="252.71933"
           x="439.21429"
           height="17"
           width="48"
           id="rect2290"
           style="fill:#9c0f0f;fill-opacity:1;stroke:none;stroke-width:0.99999988;stroke-linecap:square;stroke-linejoin:miter;stroke-miterlimit:4;stroke-dasharray:none;stroke-dashoffset:0;stroke-opacity:1" />
        <path
           style="fill:#888888;fill-opacity:1;stroke:none;stroke-width:1;stroke-linecap:square;stroke-linejoin:miter;stroke-miterlimit:4;stroke-dashoffset:0;stroke-opacity:1"
           d="m 431.23236,229.21933 7,0 0,5.5 -7,5.5 0,-11 z"
           id="rect3370"
           sodipodi:nodetypes="ccccc"
           inkscape:connector-curvature="0" />
        <g
           id="g3995"
           transform="translate(361.2324,110.2193)"
           style="stroke:none">
          <path
             sodipodi:nodetypes="ccccc"
             id="rect2207"
             d="m 48.125,136.44637 29.10417,0 -5.29167,31.85406 -18.52083,0 -5.29167,-31.85406 z"
             style="fill:url(#linearGradient3717);fill-opacity:1;stroke:none;stroke-width:1;stroke-linecap:square;stroke-linejoin:miter;stroke-miterlimit:4;stroke-dashoffset:0;stroke-opacity:1"
             inkscape:connector-curvature="0" />
          <path
             id="path3913"
             d="m 48.315648,136.4375 0.3125,1.84375 c 0.0728,-0.14143 0.145502,-0.291 0.1875,-0.375 0.28558,-0.57116 1.1875,-0.76472 1.1875,0.1875 10e-7,0.32824 0.20462,0.64212 0.34375,0.78125 0.33472,0.33471 0.888414,0.28567 1.0625,-0.0625 0.180001,-0.36 -0.19294,-0.75544 -0.34375,-0.90625 -0.255487,-0.25548 -0.21875,-0.86132 -0.21875,-1.21875 0,-0.0958 0.01009,-0.17909 0.03125,-0.25 l -2.5625,0 z m 3.90625,0 c -0.01687,0.1061 -0.03125,0.21463 -0.03125,0.3125 -1e-6,0.42963 0.0625,0.81289 0.0625,1.21875 10e-7,0.50947 0.227294,0.68458 0.15625,0.96875 -0.126629,0.50652 -0.404973,0.8463 -0.15625,1.34375 0.129495,0.25899 0.694978,0.15438 0.9375,0.0937 0.523293,-0.13081 1.186101,-0.1302 1.5625,-0.4375 0.02301,-0.11419 0.03953,-0.20336 0.03125,-0.28125 -0.162454,-0.15749 -0.600965,-0.30129 -0.75,-0.5 -0.253968,-0.33862 -0.399576,-0.78277 -0.65625,-1.125 -0.176405,-0.2352 -0.06234,-0.81315 0,-1.0625 0.122345,-0.48937 0.5,-0.0552 0.5,0.28125 10e-7,0.49276 -0.0675,0.67751 0.15625,1.125 0.17666,0.35332 0.329758,0.37827 0.5,0.71875 0.117051,0.2341 0.228449,0.3597 0.25,0.5625 0.06653,0.0645 0.103179,0.14683 0.03125,0.21875 -0.01916,0.0192 -0.04146,0.0453 -0.0625,0.0625 -0.0052,0.0257 -0.02418,0.0342 -0.03125,0.0625 -0.09544,0.38179 -0.09509,0.78661 -0.1875,1.15625 -0.07947,0.31786 -0.02954,0.24306 -0.4375,0.40625 -0.153698,-0.1537 -0.853183,-0.19295 -1.125,-0.125 -0.386148,0.0965 -0.708642,0.28125 -1.125,0.28125 -0.315281,0 -0.403036,-0.2684 -0.5,-0.65625 -0.118988,-0.47595 0.0099,-0.62002 -0.4375,-0.84375 -0.554048,-0.27701 -1.23859,-0.26277 -1.8125,-0.40625 -0.104419,-0.0261 -0.18071,-0.0763 -0.25,-0.125 l 0.875,5.25 c 0.197129,-0.18518 0.349684,-0.35562 0.40625,-0.46875 0.144114,-0.28823 0.09729,-0.54833 0,-0.9375 -0.05922,-0.2369 -0.07999,-0.92924 -0.40625,-1.125 -0.03247,-0.0195 -0.813937,-0.7887 -0.34375,-0.90625 0.119505,-0.0299 0.345088,-0.0701 0.5625,-0.0625 0.217412,0.008 0.40625,0.0465 0.40625,0.1875 0,0.6456 0.710588,1.95515 1.40625,1.78125 0.449397,-0.11235 0.826218,-0.38624 1.28125,-0.5 6.91e-4,-1.7e-4 1.000002,-0.19866 1,0 0,0.39932 -0.116515,0.65357 -0.21875,1.0625 -0.124689,0.49876 -0.327137,0.29708 -0.71875,0.21875 -1.019153,-0.20383 -1.074486,0.32449 -1.8125,1.0625 -0.251412,0.25141 -0.534059,0.43039 -1.0625,0.5625 -0.09827,0.0246 -0.200324,0.11803 -0.3125,0.21875 l 0.53125,3.21875 c 0.101285,0.0398 0.202233,0.0779 0.28125,0.0937 0.332688,0.0665 0.974312,-0.39341 1.1875,-0.5 0.554595,-0.2773 0.926808,-0.13569 0.34375,-0.71875 -0.212674,-0.21266 -0.113186,-0.89024 -0.1875,-1.1875 -0.129543,-0.51816 -0.01403,-0.9418 0.46875,-1.0625 0.223582,-0.0559 0.395347,-0.0903 0.5,-0.0937 0.31396,-0.0104 0.158191,0.21487 -0.0625,0.65625 -0.150854,0.3017 0.06656,0.76623 0.125,1 0.119814,0.47925 0.293582,0.625 0.78125,0.625 0.508861,10e-6 0.460288,-0.5026 0.375,-0.84375 -0.02355,-0.0942 -0.0702,-0.18704 -0.09375,-0.28125 -0.120449,-0.4818 0.388201,-0.47986 0.71875,-0.5625 0.504383,-0.12609 0.90625,-0.24947 0.90625,0.34375 -1e-6,0.42084 0.262826,0.76283 0.4375,0.9375 0.329086,0.32909 0.0175,0.67 -0.15625,0.84375 -0.22877,0.22878 -0.584088,0.1875 -0.84375,0.1875 -0.403461,10e-6 -0.690703,0.0797 -0.96875,0.21875 -0.26185,0.13094 -0.392997,0.50475 -0.5,0.71875 -0.132078,0.26416 0.0625,0.6699 0.0625,0.96875 -1e-6,0.28012 0.153194,0.5867 0.5,0.5 0.332844,-0.0832 0.573819,-0.20878 0.84375,-0.34375 0.301605,-0.1508 -0.4375,-0.56904 -0.4375,-0.90625 10e-7,-0.47354 0.781338,-0.42183 1.0625,-0.28125 0.242509,0.12125 0.422167,0.62132 0.71875,0.84375 0.315478,0.23661 0.160451,0.66138 0.0625,0.90625 -0.171375,0.42845 -0.6875,0.0883 -0.6875,0.84375 10e-7,0.41517 0.445887,0.7221 0.75,0.84375 0.406259,0.16251 1.300486,-0.85098 1.4375,-1.125 0.191744,-0.38351 1.064971,-0.625 1.46875,-0.625 0.505454,0 0.95261,-0.0746 1.34375,0.21875 0.484809,0.36361 1.357143,0.41072 1.562503,0 0.21594,-0.43189 0.41604,-0.57229 0.78125,-0.9375 0.26813,-0.26813 0.36679,-0.43909 0.28125,-0.78125 -0.10249,-0.40994 -0.46117,-0.51608 -0.65625,-0.90625 -0.155,-0.31001 -0.19211,-0.48718 -0.28125,-0.84375 -0.06411,-0.25643 0.65962,-0.65963 0.78125,-0.78125 0.35927,-0.35928 0.21875,0.40657 0.21875,0.71875 0,0.40066 -0.09594,0.74125 0,1.125 0.08361,0.33446 0.75504,0.29436 0.90625,0.21875 0.13323,-0.0666 0.15625,-0.83587 0.15625,-1.0625 0,-0.4765 0.66243,-0.0563 0.71875,0 0.33007,0.33007 0.5625,0.10492 0.5625,0.625 0,0.27503 -0.3899,0.61362 -0.5625,0.84375 -0.2846,0.37948 0.02072,0.71867 0.1875,0.84375 0.34224,0.25668 0.46709,0.45437 0.78125,0.21875 0.32195,-0.24146 0.53796,-0.21875 1,-0.21875 0.30979,0 0.5,0.11 0.5,0.5625 0,0.19454 -0.61192,0.76817 -0.78125,0.9375 -0.28677,0.28677 -0.03208,0.49239 -0.5625,0.625 -0.47609,0.11903 -0.77282,-0.56168 -0.9375,-0.78125 -0.21308,-0.28412 -0.71824,-0.49962 -0.96875,-0.6875 -0.45723,-0.34292 -1.63149,1.11969 -1.71875,1.46875 -0.0414,0.1656 0.24934,0.69012 0.15625,1.0625 -0.11073,0.44292 0.05365,0.7444 -0.34375,0.84375 -0.4221,0.10553 -0.798202,0.15625 -1.281253,0.15625 -0.661971,0 -1.24615,0.10745 -1.84375,0.40625 -0.292727,0.14637 -0.0052,-0.82276 0,-0.84375 0.07438,-0.29754 0.539667,-0.625 0.9375,-0.625 0.360039,10e-6 0.668399,0.13758 0.96875,0.0625 0.420693,-0.10518 0.117115,-0.84384 0,-1 -0.290978,-0.38798 -0.327686,-0.27723 -0.84375,-0.40625 -0.480682,-0.12018 -0.71256,-0.36247 -1.125,-0.15625 -0.289333,0.14466 -0.516621,0.41091 -0.71875,0.5625 -0.288566,0.21642 -0.419739,0.51349 -0.625,0.71875 -0.268657,0.26867 -0.370467,0.46422 -0.625,0.71875 -0.262865,0.26286 -0.108523,0.61572 0.0625,0.84375 0.191819,0.25575 0.446877,0.20625 0.625,0.5625 0.249243,0.49849 -0.06711,0.5 0.65625,0.5 0.430621,-1e-5 0.244233,0.52307 0.1875,0.75 -0.09213,0.36853 -0.313513,0.50406 -0.40625,0.875 -0.123152,0.4926 -0.16951,0.5625 -0.71875,0.5625 -0.349785,0 -0.267803,-1.08504 -0.21875,-1.28125 0.111748,-0.44699 0.06977,-0.45421 -0.125,-0.84375 -0.145818,-0.29164 -0.544205,-0.46418 -0.9375,-0.5625 -0.461649,-0.11541 -0.414301,-0.56155 -0.34375,-0.84375 0.163178,-0.65271 -0.01122,-0.5597 -0.5,-0.4375 -0.253395,0.0634 -0.604626,0.38587 -0.78125,0.5625 -0.410183,0.41018 0.201874,0.66487 0.5,0.84375 0.320158,0.19209 0.688664,0.40741 0.9375,0.65625 0.295942,0.29594 -0.03039,0.78039 -0.15625,0.90625 -0.203704,0.2037 -0.21485,0.57815 -0.28125,0.84375 -0.08755,0.3502 -0.214656,0.58557 -0.34375,0.84375 -0.16449,0.32898 -1.5625,1.3793 -1.5625,0.21875 0,-0.58697 0.274925,-0.57339 0.71875,-0.90625 0.233354,-0.17502 0.123199,-0.86779 0.1875,-1.125 0.09607,-0.38429 -0.303303,-0.7316 -0.40625,-0.9375 -0.224902,-0.4498 -0.534157,0.48329 -0.5625,0.625 -0.09238,0.46188 0.309976,0.50505 0.0625,1 -0.210751,0.42151 -0.248782,0.5 -0.78125,0.5 -0.549171,0 -0.408826,0.0925 -0.90625,-0.15625 -0.376312,-0.18814 -0.34375,-0.435 -0.34375,-0.90625 -2e-6,-0.10549 0.808158,-0.2947 0.90625,-0.34375 0.242865,-0.12144 0.125,-0.78162 0.125,-1.0625 0,-0.43107 0.140853,-0.70335 0.375,-0.9375 0.33075,-0.33074 0.292524,-0.45134 0.40625,-0.90625 0.110432,-0.44172 0.394622,-0.52543 0.78125,-0.71875 0.504078,-0.25203 -0.01091,-0.75412 -0.125,-0.90625 -0.245156,-0.32688 -0.491122,-0.30691 -0.84375,-0.21875 -0.322136,0.0805 -0.384805,-0.89828 -0.59375,-0.0625 -0.133676,0.53469 0.03657,0.50532 0.375,0.84375 0.251335,0.25133 0.21875,0.7195 0.21875,1.0625 0,0.35457 -0.455718,0.56576 -0.71875,0.5 -0.336128,-0.084 -0.34375,-0.76748 -0.34375,-1.0625 2e-6,-0.30531 -0.365563,-0.73113 -0.5,-1 -0.217183,-0.43436 0.01605,-0.56334 0.21875,-0.96875 0.149857,-0.29971 0.326473,-0.46214 0.40625,-0.78125 0.107476,-0.42991 -0.152952,-0.7467 -0.34375,-0.9375 -0.11838,-0.11838 -0.941304,0.40815 -1,0.4375 -0.282942,0.14147 -0.504941,0.26832 -0.75,0.375 l 0.3125,1.84375 c 0.211801,0.15276 0.468735,0.3437 0.5,0.46875 0.05408,0.21631 -0.03153,0.81193 0.09375,1.0625 0.056,0.11199 0.5505,0.90144 0.28125,0.96875 -0.16598,0.0415 -0.310561,0.10764 -0.4375,0.1875 l 0.875,5.28125 c 0.344326,0.09 0.6875,0.26076 0.6875,0.6875 0,0.26071 -0.109288,1.1016 0.125,1.21875 0.332924,0.16646 0.782257,0.1885 1.0625,0.46875 0.187678,0.18767 0.466805,0.68653 0.65625,0.78125 0.27833,0.13916 0.664658,0.2416 0.96875,-0.0625 0.132457,-0.13245 0.609138,-0.5625 0.9375,-0.5625 0.4618,0 0.48759,0.23909 0.90625,0.34375 0.200995,0.0503 0.915436,0.0809 1.0625,0.375 0.187978,0.37596 0.189849,0.625 -0.34375,0.625 -0.388197,0 -0.690442,-0.15625 -1,-0.15625 -0.339388,0 -0.798687,-0.0816 -1.125,0 -0.574044,0.14351 -0.638995,0.3195 -1.125,0.5625 -0.480051,0.24003 -0.45771,0.64796 -0.84375,0.9375 -0.166457,0.12484 -0.733807,0.42098 -1.03125,0.53125 l 0.34375,2.0625 c 0.0087,-0.0233 0.01807,-0.0361 0.03125,-0.0625 0.183131,-0.36626 0.34094,-0.40485 0.78125,-0.625 0.274362,-0.13718 0.75013,-0.40676 0.84375,-0.78125 0.07195,-0.28778 0.42956,-0.82417 0.78125,-1 0.335825,-0.16791 0.655261,-0.56251 1.0625,-0.5625 0.462372,0 0.500001,0.0869 0.5,0.5625 0,0.4101 -0.164994,0.6425 -0.34375,1 -0.172649,0.3453 -0.156252,0.7077 -0.15625,1.125 0,0.11245 -0.01822,0.25732 -0.03125,0.46875 l 1.78125,0 c -0.0115,-0.18311 -0.03134,-0.34411 -0.0625,-0.46875 -0.115258,-0.46103 -0.0625,-1.08624 -0.0625,-1.5625 0,-0.34481 0.998635,-0.14029 1.1875,-0.1875 0.276894,-0.0692 0.07743,-1.52517 0,-1.71875 -0.220128,-0.55032 0.975658,-0.88191 1.28125,-1.1875 0.303287,-0.30329 0.301451,-0.4375 0.84375,-0.4375 0.535923,0 0.351753,0.51523 0.218753,0.78125 -0.10018,0.20035 -0.63924,0.45174 -0.843753,0.65625 -0.235756,0.23576 -0.21875,0.42709 -0.21875,0.84375 10e-7,0.23215 0.330644,0.73689 0.4375,0.84375 0.283106,0.28311 0.662133,-0.5625 1.062503,-0.5625 0.16835,-1e-5 0.59221,0.71671 0.6875,0.84375 0.2368,0.31573 -0.69475,0.40625 -0.96875,0.40625 -0.343487,0 -0.739801,-0.10682 -1.062503,-0.1875 -0.268797,-0.0672 -0.620341,0.24534 -0.78125,0.40625 -0.280617,0.28061 -0.4375,0.47908 -0.4375,1 0,0.1376 0.115711,0.32233 0.21875,0.53125 l 1.875003,0 c 0.01198,-0.30794 0.06058,-0.64328 0.1875,-0.8125 0.1834,-0.24454 0.95757,0.0625 1.125,0.0625 0.222,0 0.82631,-0.40262 0.90625,-0.5625 0.27085,-0.5417 0.19449,-0.85306 0.5625,-1.34375 0.29866,-0.39821 0.39651,-0.70799 0,-0.90625 -0.34392,-0.17195 -0.5766,-0.33946 -0.96875,-0.4375 -0.53652,-0.13413 -0.20855,-0.6977 0,-0.90625 0.37582,-0.37582 -0.11537,-0.54928 0.5625,-0.71875 0.33734,-0.0843 0.16265,0.85316 0.5,0.9375 0.42808,0.10702 0.56878,0.34375 0.96875,0.34375 0.72616,0 1.0225,-0.5625 1.6875,-0.5625 0.44541,0 0.1348,0.85724 0.09375,1.0625 -0.08457,0.42281 -0.21875,0.67658 -0.21875,1.125 -1e-5,0.35404 -0.71902,-0.14837 -1.0625,-0.0625 -0.48305,0.12075 -0.61303,0.50731 -0.78125,0.84375 -0.21514,0.43028 -0.19467,0.3558 0.21875,0.5625 0.39561,0.19782 0.52756,0.49631 0.71875,0.6875 0.27769,0.2777 0.39977,0.24035 0.40625,0.6875 l 1.71875,0 c -0.08402,-0.1596 -0.18288,-0.31019 -0.375,-0.40625 -0.28953,-0.14477 -0.83045,-0.17817 -0.71875,-0.625 0.12104,-0.48417 0.44876,-0.33501 0.59375,-0.625 0.0763,-0.15261 0.35609,-0.94186 0.59375,-0.96875 0.03395,-0.004 0.06294,4.5e-4 0.09375,0.0312 0.11775,0 0.26712,-0.0894 0.34375,0 0.40716,0.47503 0.67223,0.69149 1.28125,0.84375 0.35482,0.0887 0.70512,0.22317 1.0625,0.3125 0.1819,0.0455 0.42781,0.2618 0.59375,0.5 l 0.25,-1.4375 c -0.64105,-0.009 -0.63318,-0.13319 -1.0625,-0.5625 -0.07807,-0.0781 -0.60419,-0.71875 -0.6875,-0.71875 -0.3631,0 -0.70652,0 -1.0625,0 -0.25597,0 -0.84375,-0.0137 -0.84375,-0.28125 0,-0.36369 0.0095,-0.72827 0.1875,-0.90625 0.15929,-0.15929 0.55887,-0.46714 0.8125,-0.53125 0.08454,-0.0214 0.14268,-0.0136 0.1875,0.0312 0.5467,0 0.52595,0.27595 0.90625,0.65625 0.23352,0.23353 0.33468,0.45086 0.78125,0.5625 0.36221,0.0906 0.61394,0.18473 1,0.28125 l 0.21875,-1.21875 c -0.38687,0 -0.67014,-0.0425 -1,-0.125 -0.40729,-0.10182 -0.56223,-0.31223 -0.90625,-0.65625 -0.15324,-0.15323 -0.54023,-0.692 -0.84375,-0.84375 -0.25027,-0.12513 -0.609,-0.29649 -0.875,-0.5625 -0.23615,-0.23615 -0.62501,-0.24921 -0.625,-0.625 0,-0.39026 0.17937,-0.58562 0.4375,-0.84375 0.23106,-0.23106 0.44581,-0.46717 0.78125,-0.71875 0.2702,-0.20265 0.50042,-0.34458 0.6875,-0.71875 0.18991,-0.37982 0.46993,-0.536 0.5625,-0.90625 0.07096,-0.28387 0.1168,-0.71208 0.375,-0.78125 0.08606,-0.0231 0.19857,-0.0101 0.34375,0.0625 0.30482,0.15241 0.50848,0.42611 0.84375,0.59375 0.29731,0.14866 0.79909,0.29909 1.0625,0.5625 0.01324,0.0132 0.04617,0.0189 0.0625,0.0312 l 0.28125,-1.59375 c -0.31838,-0.25812 -0.48705,-0.22332 -0.96875,-0.34375 -0.37862,-0.0947 -0.65867,-0.33655 -1.0625,-0.4375 -0.36715,-0.0918 -0.83156,-0.28125 -1.21875,-0.28125 -0.30748,0 -0.71553,-0.0808 -0.78125,-0.34375 -0.09162,-0.36646 -0.0021,-0.67921 0.09375,-1.0625 0.09631,-0.38525 0.08119,-0.7126 -0.09375,-1.0625 -0.17854,-0.35707 -0.65995,-0.3676 -0.84375,0 -0.04451,0.089 -0.15146,0.71396 -0.28125,0.84375 -0.16932,0.16932 -0.60019,0.36213 -0.78125,0 -0.12654,-0.25307 -0.16614,-0.49172 -0.0625,-0.90625 0.10284,-0.41136 0.3833,-0.29787 0.5625,-0.65625 0.21169,-0.42339 0.1058,-0.73573 0.21875,-1.1875 0.13436,-0.53745 0.1435,-0.4142 0.53125,-0.5 -0.03582,-0.0805 -0.1006,-0.23244 -0.125,-0.28125 -0.0471,-0.0942 0.10915,0.18705 0.15625,0.28125 -0.01637,0.004 -0.01612,-0.003 -0.03125,0 0.14481,0.32565 0.35424,0.77098 0.53125,1.125 0.13612,0.27226 0.26736,0.32985 0.5,0.5625 0.0562,0.0562 0.57416,0.57041 0.75,0.21875 0.06602,-0.13206 0.32434,-0.86422 0.65625,-0.78125 0.40075,0.10019 0.34375,0.23584 0.34375,0.71875 0,0.33357 -0.0068,0.73229 -0.125,0.96875 -0.03554,0.0711 -0.53132,0.81246 -0.28125,0.9375 0.3323,0.16615 0.97354,1.05771 1.40625,0.625 0.17549,-0.17549 0.13895,-0.57645 0.34375,-0.78125 0.31475,-0.31475 0.55478,-0.22433 0.96875,-0.21875 l 0.40625,-2.375 c -0.28153,0.44354 -0.83206,1.20897 -1.3125,0.96875 -0.36611,-0.18305 -0.23473,-0.40767 -0.34375,-0.84375 -0.05741,-0.22962 0.05558,-0.94441 -0.125,-1.125 -0.16622,-0.16621 -0.53061,-0.53923 -0.9375,-0.4375 -0.33049,0.0826 -0.77746,0.26373 -1.125,0.4375 -0.19581,0.0979 -0.6268,0.22592 -0.5,-0.28125 0.04927,-0.19709 0.23608,-1.21874 0.5625,-1.21875 0.35873,0 1.21875,0.0795 1.21875,-0.34375 0,-0.45719 -0.62075,-1.07706 -1.0625,-1.1875 -0.39375,-0.0984 -0.94385,0.17029 -1.125,0.125 -0.45091,-0.11272 -0.58628,-0.0951 -0.71875,-0.625 -0.23562,-0.94249 0.16058,-0.5 0.71875,-0.5 0.54228,0 0.85929,-0.004 1.34375,-0.125 0.14905,-0.0373 0.87095,-0.45368 0.90625,-0.3125 0.06175,0.247 0.44175,1.49787 1,1.21875 0.27051,-0.13525 0.75,-0.49697 0.75,-0.78125 0,-0.87913 -0.40908,-0.90908 -0.96875,-1.46875 -0.29988,-0.29988 0.19849,-0.37499 0.625,-0.375 0.65139,0 0.76013,1.89084 1.28125,1.5 0.10887,-0.0816 0.41307,-0.24545 0.75,-0.375 l 0.78125,-4.625 c -0.25872,-0.14992 -0.51539,-0.32428 -0.5625,-0.3125 -0.40968,0.10242 -0.57088,0.18597 -0.90625,0.4375 -0.1794,0.13455 -0.73411,0.5159 -0.34375,0.90625 0.23423,0.23424 0.78018,0.56358 0.40625,0.9375 -0.20814,0.20814 -0.72756,0.88863 -0.96875,0.40625 -0.12025,-0.2405 -0.39688,-0.61562 -0.5625,-0.78125 -0.44717,-0.44717 -0.72467,-0.36909 -1.15625,0.0625 -0.75044,0.75044 -0.2194,0.47132 -0.40625,1.21875 -0.07546,0.30184 -0.94404,0.70603 -1.34375,0.40625 -0.1721,-0.12907 -1.0883,-0.75919 -0.5,-0.90625 0.79945,-0.19987 1.25988,-0.16453 1.5,-1.125 0.11875,-0.475 -0.3117,-0.67373 -0.59375,-1.125 -0.17467,-0.27947 -0.47267,-1.5664 -0.625,-1.71875 -0.16338,-0.16338 -0.50728,-0.4008 -0.125,-0.6875 0.16088,-0.12066 0.85503,-0.67361 0.96875,-0.21875 0.15818,0.63272 1.67056,2.46159 1.90625,2.34375 0.60965,-0.30483 1.69988,-0.89976 2,-1.5 0.06268,-0.12536 0.77894,-0.87731 0.75,-0.90625 -0.30717,-0.30716 -0.45992,-0.34375 -0.90625,-0.34375 -0.12751,0 -1.11958,-0.26833 -0.78125,-0.4375 0.24767,-0.12384 0.59312,-0.17953 1,-0.28125 0.33338,-0.0833 0.56249,-0.23795 0.5625,-0.71875 0,-0.009 9e-5,-0.0219 0,-0.0312 l -2.8125,0 c -0.09703,0.15261 -0.2129,0.30466 -0.15625,0.53125 0.08344,0.33378 0.0625,0.69334 0.0625,1.0625 0,0.63822 -0.42515,0.54943 -0.5625,0 -0.0978,-0.39119 -0.2134,-0.6143 -0.40625,-1 -0.08599,-0.17198 -0.12917,-0.38154 -0.15625,-0.59375 l -2.84375,0 c -0.11029,0.24528 -0.24837,0.62173 -0.34375,0.8125 -0.18614,0.37229 -0.18359,0.67186 -0.28125,1.0625 -0.03412,0.13647 0.45672,0.67065 0.5,0.84375 0.11742,0.46971 0.13239,0.92103 0.34375,1.34375 0.14273,0.28546 0.21875,0.72002 0.21875,1.0625 0,0.46385 -0.73214,0.23661 -0.90625,0.0625 -0.33266,-0.33266 -0.45687,-0.76496 -0.5625,-1.1875 -0.08521,-0.34085 -0.36059,-0.64184 -0.5625,-0.84375 -0.39282,-0.39281 -0.82301,0.16676 -1.0625,0.40625 -0.25468,0.25468 -0.46279,0.6049 -0.78125,0.84375 -0.82507,0.6188 -1.81533,0.55685 -2.1875,-0.1875 -0.14188,-0.28375 0.65912,-0.6726 0.84375,-0.71875 0.47365,-0.11841 0.61968,-0.32247 0.71875,-0.71875 0.3562,-1.42482 -1.37965,-0.80718 -2.5,-1.03125 -0.750753,-0.15015 -0.565174,-0.77858 -0.0625,-1.28125 0.19565,-0.19565 0.3939,-0.36776 0.625,-0.46875 l -2.468753,0 c -0.0433,0.10531 -0.06655,0.1956 -0.125,0.3125 -0.185058,0.37012 -0.21875,0.86065 -0.21875,1.28125 10e-7,0.36169 0.741994,0.65805 0.90625,0.78125 0.250517,0.18789 0.450608,0.80243 0.5,1 0.120408,0.48164 -0.132503,0.82751 -0.28125,1.125 -0.129706,0.25942 0.309098,0.36819 0.4375,0.625 0.05198,0.10396 -0.797988,0.73075 -1,0.78125 -0.813044,0.20326 -0.789595,-1.13192 -0.625,-1.40625 0.241514,-0.40252 0.221232,-0.34126 -0.15625,-0.71875 -0.296509,-0.2965 -0.422193,-0.64626 -0.6875,-1 -0.193896,-0.25852 -0.21875,-0.71221 -0.21875,-1.03125 2e-6,-0.34548 0.351054,-0.94481 0.5625,-1.15625 0.138928,-0.13893 0.170739,-0.36048 0.1875,-0.59375 l -1.96875,0 c -0.162913,0.2817 -0.1827,1.0192 -0.125,1.25 0.09632,0.38528 0.310011,0.74004 0.40625,1.125 0.09214,0.36858 0.02575,0.78675 -0.1875,1 -0.344621,0.34463 -1.001596,-0.4391 -1.28125,-0.71875 -0.303346,-0.30335 -0.464446,-0.60614 -0.78125,-0.84375 -0.569446,-0.42708 -1.220693,-0.84327 -0.34375,-1.0625 0.0457,-0.0114 0.0779,0 0.125,0 0.367061,0 0.768126,-0.11188 1,-0.34375 0.157916,-0.15792 0.28266,-0.29779 0.40625,-0.40625 l -4.96875,0 z m 11.875003,0 c 0.23932,0.10137 0.39252,0.28884 0.46875,0.59375 0.13902,0.55612 0.56621,0.76748 0.90625,0.9375 0.32064,0.16032 1.01921,0.14364 1.34375,0.0625 0.26561,-0.0664 0.31007,-0.52639 0.4375,-0.78125 0.08398,-0.16796 0.05917,-0.51074 0.03125,-0.8125 l -3.1875,0 z m -8.500003,3.15625 c 0.174422,0.21803 0.251653,0.3454 0.40625,0.5 0.29623,0.29623 0.543858,0.42818 0.9375,0.625 0.175213,0.0876 1.026426,0.60518 0.625,0.90625 -0.230381,0.17279 -0.626215,0.46997 -0.9375,0.78125 -0.179954,0.17996 -0.967668,1.37717 -1.1875,0.9375 -0.136396,-0.27279 -0.124999,-0.59653 -0.125,-1 0,-0.35627 0.13555,-0.89529 0.0625,-1.1875 -0.206326,-0.8253 0.226935,-1.56658 0.21875,-1.5625 z m 3.65625,1.0625 c 0.466874,0.0667 -0.176883,0.94872 -0.0625,1.40625 0.107282,0.42912 0.150857,0.86152 0.28125,1.1875 0.162361,0.4059 -0.0093,0.70613 -0.15625,1 -0.158518,0.31703 -0.492706,0.11302 -0.84375,-0.0625 -0.362919,-0.18145 -0.814799,-0.18865 -1.1875,-0.375 -0.273938,-0.13698 0.560534,-0.74803 0.5625,-0.75 0.27629,-0.2763 0.439841,-0.009 0.5625,-0.5 0.122742,-0.49096 0.04001,-1.03502 0.15625,-1.5 0.05745,-0.22979 0.453875,-0.3128 0.6875,-0.40625 z m 7.781253,0.5625 c 0.38154,-0.0954 0.27879,0.52633 0.40625,0.78125 0.17997,0.35994 0.21875,0.64316 0.21875,1.0625 0,0.63829 0.46752,0.21937 0.78125,0.0625 0.50415,-0.25207 0.47426,0.20955 0.5625,0.5625 0.10245,0.40982 -0.32586,0.59073 -0.5625,0.90625 -0.2026,0.27014 -0.26243,0.7372 -0.34375,1.0625 -0.08005,0.32017 0.0031,0.76241 0.0625,1 0.10013,0.40053 0.29186,0.63561 0.5625,0.90625 0.30807,0.30806 0.06704,0.74092 -0.0625,1 -0.19017,0.38033 -0.54153,0.5625 -1,0.5625 -0.54306,1e-5 -0.5477,-0.73847 -0.625,-1.125 -0.08688,-0.43437 0.0625,-0.70473 0.0625,-1.125 0,-0.4029 -0.05177,-0.82228 -0.21875,-1.15625 -0.29265,-0.58531 -1.11889,0.39097 -1.25,0.71875 -0.21802,0.54504 -0.26367,0.46328 -0.875,0.21875 -0.31827,-0.12731 -0.72241,-0.44024 -0.96875,-0.625 -0.66396,-0.49797 -1.5807,-0.61848 -2.343753,-1 -0.63576,-0.31788 -0.796657,-0.90669 -0.5,-1.5 0.207505,-0.41501 0.727612,0.0714 0.9375,0.28125 0.280853,0.28085 0.429213,0.375 0.843753,0.375 0.48864,1e-5 0.60425,-0.30173 0.5,-0.71875 -0.12769,-0.51077 -0.11304,-0.54804 0.28125,-0.84375 0.33758,-0.2532 0.69647,0.0224 0.84375,0.21875 0.08222,0.10962 0.1004,1.02662 0.125,1.125 0.09878,0.39514 0.1949,0.53721 0.59375,0.4375 0.37625,-0.0941 0.625,-0.30295 0.625,-0.78125 0,-0.15081 -0.18705,-0.25724 -0.28125,-0.375 0.39904,0.39904 1.19412,-0.90814 1.28125,-1.34375 0.07783,-0.38917 -0.36299,-0.51082 0.34375,-0.6875 z m -11.218753,2.75 c 0.09261,0.0347 0.125,0.20179 0.125,0.5625 -1e-6,0.39992 -0.227565,0.38277 -0.09375,0.65625 0.07442,0.0306 0.117301,0.0933 0.09375,0.1875 -0.0607,-0.0809 -0.06774,-0.13435 -0.09375,-0.1875 -0.223271,-0.0918 -0.770692,0.0365 -1.03125,-0.0937 -0.667968,-0.33398 0.298391,-0.70817 0.5625,-0.90625 0.19478,-0.14608 0.344887,-0.25341 0.4375,-0.21875 z m 2.15625,1.5625 c 0.388595,0 0.214953,0.73394 0.15625,0.96875 -0.117894,0.47157 0.23889,0.91354 0.5625,1.15625 0.460692,0.34552 1.228055,-0.0749 1.40625,-0.3125 0.266619,-0.35551 -0.522467,-0.71241 -0.6875,-1.125 -0.202177,-0.50544 0.356194,-0.5625 0.6875,-0.5625 0.309241,0 0.558979,0.49648 0.78125,0.71875 0.25831,0.25831 0.651566,0.30626 0.84375,0.5625 0.230046,0.30673 -0.44118,0.78493 -0.5625,0.90625 -0.228118,0.22812 -0.135847,0.70661 -0.0625,1 0.02417,0.0967 0.498928,0.4666 0.625,0.71875 0.146239,0.29247 -0.05585,0.76795 -0.125,0.90625 -0.191885,0.38377 -0.878819,-0.16389 -0.9375,-0.28125 -0.156478,-0.31295 -0.49222,-0.58338 -0.6875,-0.84375 -0.224673,-0.29957 -0.395595,-0.5625 -0.78125,-0.5625 -0.601745,-1e-5 -0.40895,0.4348 -0.0625,0.78125 0.277716,0.27771 0.25895,0.42855 0,0.6875 -0.185685,0.18568 -0.800707,0.23143 -1,0.28125 -0.515417,0.12886 -0.470636,-0.43022 -0.71875,-0.84375 10e-7,0.33057 -0.383189,-0.91983 -0.0625,-1 0.393156,-0.0983 0.5,-0.0807 0.5,-0.5625 0,-0.3261 -0.294556,-0.68286 -0.4375,-0.96875 -0.217117,-0.43423 -0.464676,-0.5788 -0.34375,-1.0625 0.07712,-0.3085 0.557263,-0.5625 0.90625,-0.5625 z m 17.125003,1.625 c -0.14936,8.3e-4 -0.29511,0.0451 -0.4375,0.1875 -0.29825,0.29824 -0.51917,0.47583 -0.71875,0.875 -0.10484,0.20969 -0.28509,0.83991 -0.0625,1.0625 0.18521,0.18522 0.67489,0.63102 0.78125,0.84375 0.09219,0.18439 0.29607,0.33534 0.40625,0.5 l 0.53125,-3.3125 c -0.01513,-0.008 -0.01546,-0.0233 -0.03125,-0.0312 -0.16643,-0.0832 -0.31939,-0.12583 -0.46875,-0.125 z m -10.59375,5.75 c 0.18041,0.004 0.41799,0.1047 0.625,0.1875 0.03606,0.0144 -0.06602,0.95469 -0.0625,0.96875 0.07975,0.319 0.34362,0.42181 0.625,0.5625 0.376,0.188 0.40625,-0.4426 0.40625,-0.6875 0,-0.24084 0.81596,-0.15625 1,-0.15625 0.32683,0 0.49092,0.49496 0.5625,0.78125 0.08593,0.34371 -0.46912,0.5625 0.15625,0.5625 0.5704,0 0.63612,-0.36388 1.0625,0.0625 0.2397,0.2397 0.30624,0.65832 0.46875,0.875 0.31002,0.41335 0.46709,0.18089 0.59375,0.6875 0.06029,0.24117 -0.47858,0.78394 -0.59375,0.9375 -0.21484,0.28645 -0.45707,0.58206 -0.625,0.75 -0.27213,0.27212 -1.01092,0.13554 -1.34375,0.21875 -0.48553,0.12138 -0.74568,-0.0851 -0.90625,-0.40625 -0.22656,-0.45312 0.2377,-0.65625 0.625,-0.65625 0.38271,1e-5 0.51696,0.16339 0.84375,0 0.23889,-0.11944 0.31201,-0.52928 0.375,-0.78125 0.13075,-0.52303 0.49203,-0.90625 -0.21875,-0.90625 -0.52621,0 -0.55284,-0.38467 -1,0.0625 -0.22089,0.22089 -0.20913,0.83813 -0.34375,1.0625 -0.22028,0.36711 -0.44576,0.3355 -0.78125,0 -0.30588,-0.30589 0.0058,-0.78914 -0.0625,-1.0625 -0.07649,-0.30596 -0.6852,-0.40625 -1,-0.40625 -0.47195,0 -0.51692,-0.18491 -0.78125,0.34375 -0.09149,0.18298 -0.82727,-0.36023 -0.34375,-0.84375 0.3313,-0.3313 0.5,0.0771 0.5,-0.625 -0.06665,-0.13331 -0.25353,-0.82965 -0.15625,-1.21875 0.06049,-0.24195 0.19458,-0.31696 0.375,-0.3125 z m -2.40625,3.5 c 0.93162,0.18633 0.62415,0.66554 0.96875,1.125 0.25542,0.34056 0.60205,0.51147 0.0625,0.78125 -0.49819,0.24909 -1.246576,0.14255 -1.406253,0.78125 -0.09923,0.39693 -0.339966,0.98532 -0.90625,0.84375 -0.342118,-0.0855 -0.624998,-0.0973 -0.625,-0.5625 0,-0.398 0.187499,-0.77328 0.1875,-1.0625 0,-0.37399 -0.155692,-0.75222 -0.0625,-1.125 0.108405,-0.43362 0.295278,-0.45663 0.71875,-0.5625 0.226422,-0.0566 1.069813,-0.24799 1.062503,-0.21875 z m 2.59375,1.625 c 0.02493,-0.002 0.0316,0.0213 0.0625,0.0625 0.1413,0 0.3743,-0.12639 0.4375,0 0.11144,0.22288 0.28125,0.46969 0.28125,0.84375 0,0.40455 0.08313,0.75942 0.15625,1.125 0.11596,0.5798 0.14001,0.96754 0.40625,1.5 0.10975,0.21951 0.13302,0.83215 -0.40625,0.5625 -0.41734,-0.20867 -0.47296,-0.47971 -0.875,-0.78125 -0.37794,-0.28346 -0.87528,-0.40647 -1.25,-0.6875 -0.29046,-0.21784 -0.83581,-0.69147 -0.21875,-1 0.32113,-0.16056 0.47653,-0.3164 0.84375,-0.5 0.32242,-0.16122 0.38799,-1.1126 0.5625,-1.125 z m 7.84375,0 c -0.03983,0.0105 -0.08063,0.0292 -0.125,0.0625 -0.21788,0.1634 -0.50194,0.40236 -0.28125,0.84375 0.07485,0.1497 0.18134,0.83758 0.28125,0.9375 0.22215,0.22214 0.61487,0.41638 0.1875,0.84375 -0.24361,0.24361 -0.79065,0.35619 -0.96875,0 -0.12111,-0.24222 -0.06991,-0.63981 -0.21875,-0.9375 -0.2064,-0.41279 -0.38986,-0.6414 -0.84375,-0.1875 -0.65376,0.65376 -0.35679,0.29552 0,1.1875 0.18813,0.47033 0.28555,0.64277 0.6875,0.84375 0.33014,0.16508 0.69495,0.29873 1,0.375 0.23866,0.0597 0.61147,0.23345 0.875,0.3125 l 0.46875,-2.875 c -0.01928,-0.0229 -0.0431,-0.0366 -0.0625,-0.0625 -0.15183,-0.20244 -0.23916,-0.57929 -0.4375,-0.84375 -0.11154,-0.14872 -0.28372,-0.57385 -0.5625,-0.5 z m -14.656253,0.8125 c 0.02254,-0.003 0.02182,0.0124 0.03125,0.0312 0.261447,0.52289 0.510272,1.2316 1,1.84375 0.652691,0.81587 0.383217,0.0625 1.28125,0.0625 0.294354,0 0.765816,-0.0467 0.96875,0.15625 0.0054,0.005 0.624261,0.68749 0.5,0.6875 -0.262826,0 -0.90136,-0.28615 -1.1875,0 -0.439493,0.4395 -1.031572,0.90608 -1.71875,0.5625 -0.419311,-0.20965 -0.640696,-0.63284 -1.0625,-0.84375 -0.367126,-0.18357 -1.187935,-0.12456 -1.53125,0.21875 -0.390204,0.3902 -0.695664,0.56826 -1.21875,0.4375 -0.25775,-0.0644 -0.822394,-0.32396 -0.625,-0.71875 0.348548,-0.69709 0.887536,-0.26751 1.625,-0.5625 0.211863,-0.0847 0.843749,-0.32672 0.84375,-0.78125 0,-0.59908 0.200615,-0.94252 0.5,-0.34375 0,-0.21352 0.435944,-0.73032 0.59375,-0.75 z M 67.253151,160.5 c 0.15159,0.37898 0.35504,0.6363 0.5625,0.84375 0.06,0.06 0.78906,0.6875 0.78125,0.71875 -0.10058,0.40231 -0.31645,0.34375 -0.78125,0.34375 -0.57526,0 -0.4633,-0.004 -0.5625,-0.5 -0.07939,-0.39695 0.0555,-1.2675 0,-1.40625 z m -11.218753,7.15625 c -0.201687,9.4e-4 -0.412599,0.14388 -0.65625,0.46875 -0.06013,0.0802 -0.101616,0.13402 -0.15625,0.1875 l 1.5,0 c -0.0095,-0.0813 -0.03512,-0.17183 -0.09375,-0.25 -0.199601,-0.26614 -0.392063,-0.40719 -0.59375,-0.40625 z m 15.093753,0.3125 c -0.11796,-3e-4 -0.21356,-0.003 -0.28125,0.0312 -0.18956,0.0948 -0.32597,0.19506 -0.4375,0.3125 l 1.71875,0 0.0625,-0.3125 c -0.26815,0.0395 -0.73199,-0.0304 -1.0625,-0.0312 z m -8.40625,0.0312 -0.0625,0.3125 c 2.2e-4,-0.002 0.03103,0.002 0.03125,0 0.01547,-0.10852 0.01596,-0.24114 0.03125,-0.3125 z"
             style="fill:url(#linearGradient3719);fill-opacity:1;stroke:none;stroke-width:1;stroke-linecap:square;stroke-linejoin:miter;stroke-miterlimit:4;stroke-dashoffset:0;stroke-opacity:1"
             inkscape:connector-curvature="0" />
        </g>
        <path
           sodipodi:nodetypes="ccccc"
           id="path2244"
           d="m 409.35736,246.6657 29.10417,0 -5.29167,-18.44637 -18.91858,0 -4.89392,18.44637 z"
           style="fill:#d3d7cf;fill-opacity:1;stroke:none;stroke-width:1;stroke-linecap:square;stroke-linejoin:miter;stroke-miterlimit:4;stroke-dashoffset:0;stroke-opacity:1"
           inkscape:connector-curvature="0" />
        <path
           sodipodi:nodetypes="ccccc"
           id="path4329"
           d="m 416.23236,246.7734 15.0141,0 -2.99445,31.44593 -9.1218,-0.32934 -2.89785,-31.11659 z"
           style="fill:url(#linearGradient3721);fill-opacity:1;stroke:none;stroke-width:1;stroke-linecap:square;stroke-linejoin:miter;stroke-miterlimit:4;stroke-dashoffset:0;stroke-opacity:1"
           inkscape:connector-curvature="0" />
        <g
           id="g5553"
           transform="translate(361.2324,190.2193)">
          <circle
             id="path4470"
             style="opacity:0.5;fill:#000000;fill-opacity:1;stroke:none;stroke-width:0.37733486;stroke-linecap:square;stroke-linejoin:miter;stroke-miterlimit:4;stroke-dasharray:none;stroke-dashoffset:0;stroke-opacity:1"
             transform="matrix(2.645833,0,0,2.654506,1.622202,41.83474)"
             cx="23.820704"
             cy="11.884739"
             r="3.5346851" />
          <circle
             transform="matrix(2.645833,0,0,2.654506,-0.25676,39.40598)"
             style="fill:url(#radialGradient3723);fill-opacity:1;stroke:#555753;stroke-width:0.37733486;stroke-linecap:square;stroke-linejoin:miter;stroke-miterlimit:4;stroke-dasharray:none;stroke-dashoffset:0;stroke-opacity:1"
             id="path2253"
             cx="23.820704"
             cy="11.884739"
             r="3.5346851" />
          <rect
             y="68"
             x="59"
             height="10.875"
             width="3"
             id="rect3328"
             style="fill:#888a85;fill-opacity:1;stroke:none;stroke-width:1;stroke-linecap:square;stroke-linejoin:miter;stroke-miterlimit:4;stroke-dasharray:none;stroke-dashoffset:0;stroke-opacity:1" />
          <rect
             style="fill:#888a85;fill-opacity:1;stroke:none;stroke-width:1;stroke-linecap:square;stroke-linejoin:miter;stroke-miterlimit:4;stroke-dasharray:none;stroke-dashoffset:0;stroke-opacity:1"
             id="rect3330"
             width="5"
             height="7"
             x="65"
             y="68" />
          <circle
             transform="matrix(1.067331,0,0,0.913038,-1.603771,3.994421)"
             id="path3332"
             style="fill:#888a85;fill-opacity:1;stroke:none;stroke-width:1;stroke-linecap:square;stroke-linejoin:miter;stroke-miterlimit:4;stroke-dasharray:none;stroke-dashoffset:0;stroke-opacity:1"
             cx="60.059883"
             cy="66.967842"
             r="2.3422911" />
          <circle
             style="fill:#d3d7cf;fill-opacity:1;stroke:none;stroke-width:1;stroke-linecap:square;stroke-linejoin:miter;stroke-miterlimit:4;stroke-dasharray:none;stroke-dashoffset:0;stroke-opacity:1"
             id="path3334"
             transform="matrix(0.640398,0,0,0.640399,24.03775,21.61388)"
             cx="60.059883"
             cy="66.967842"
             r="2.3422911" />
        </g>
        <rect
           style="fill:#bbbbbb;fill-opacity:1;stroke:none;stroke-width:1;stroke-linecap:square;stroke-linejoin:miter;stroke-miterlimit:4;stroke-dasharray:none;stroke-dashoffset:0;stroke-opacity:1"
           id="rect3338"
           width="5"
           height="16"
           x="415.23236"
           y="229.21933" />
        <rect
           y="229.21933"
           x="421.23236"
           height="16"
           width="5"
           id="rect3340"
           style="fill:#bbbbbb;fill-opacity:1;stroke:none;stroke-width:1;stroke-linecap:square;stroke-linejoin:miter;stroke-miterlimit:4;stroke-dasharray:none;stroke-dashoffset:0;stroke-opacity:1" />
        <rect
           style="fill:#bbbbbb;fill-opacity:1;stroke:none;stroke-width:1;stroke-linecap:square;stroke-linejoin:miter;stroke-miterlimit:4;stroke-dasharray:none;stroke-dashoffset:0;stroke-opacity:1"
           id="rect3342"
           width="5"
           height="16"
           x="427.23236"
           y="229.21933" />
        <path
           style="fill:#bbbbbb;fill-opacity:1;stroke:none;stroke-width:1;stroke-linecap:square;stroke-linejoin:miter;stroke-miterlimit:4;stroke-dashoffset:0;stroke-opacity:1"
           d="m 433.23236,232.21933 4,13 -4,0 0,-13 z"
           id="rect3346"
           sodipodi:nodetypes="cccc"
           inkscape:connector-curvature="0" />
        <path
           sodipodi:nodetypes="cccc"
           id="path3349"
           d="m 414.23236,232.21933 -3.44194,13 3.44194,0 0,-13 z"
           style="fill:#bbbbbb;fill-opacity:1;stroke:none;stroke-width:1;stroke-linecap:square;stroke-linejoin:miter;stroke-miterlimit:4;stroke-dashoffset:0;stroke-opacity:1"
           inkscape:connector-curvature="0" />
        <circle
           transform="matrix(2.348128,0,0,2.348128,282.7041,81.47026)"
           id="path3344"
           style="fill:none;fill-opacity:1;stroke:#d3d7cf;stroke-width:0.42587116;stroke-linecap:square;stroke-linejoin:miter;stroke-miterlimit:4;stroke-dasharray:none;stroke-dashoffset:0;stroke-opacity:1"
           cx="60.059883"
           cy="66.967842"
           r="2.3422911" />
        <rect
           style="fill:#888a85;fill-opacity:1;stroke:none;stroke-width:1;stroke-linecap:square;stroke-linejoin:miter;stroke-miterlimit:4;stroke-dasharray:none;stroke-dashoffset:0;stroke-opacity:1"
           id="rect3352"
           width="6"
           height="2"
           x="424.23236"
           y="230.21933" />
        <rect
           y="230.21933"
           x="422.23236"
           height="2"
           width="1"
           id="rect3354"
           style="fill:#888a85;fill-opacity:1;stroke:none;stroke-width:1;stroke-linecap:square;stroke-linejoin:miter;stroke-miterlimit:4;stroke-dasharray:none;stroke-dashoffset:0;stroke-opacity:1" />
        <rect
           style="fill:#888a85;fill-opacity:1;stroke:none;stroke-width:1;stroke-linecap:square;stroke-linejoin:miter;stroke-miterlimit:4;stroke-dasharray:none;stroke-dashoffset:0;stroke-opacity:1"
           id="rect3356"
           width="1"
           height="2"
           x="431.23236"
           y="230.21933" />
        <g
           id="g5509"
           transform="translate(361.2324,190.2193)">
          <path
             sodipodi:nodetypes="cccc"
             id="path3362"
             d="m 46.612372,37.182206 2.967068,4.232233 1.53033,-1.353553 -4.497398,-2.87868 z"
             style="fill:#d3d7cf;fill-rule:evenodd;stroke:none;stroke-width:1px;stroke-linecap:butt;stroke-linejoin:miter;stroke-opacity:1"
             inkscape:connector-curvature="0" />
          <rect
             y="41"
             x="51"
             height="2"
             width="2"
             id="rect3364"
             style="fill:#d3d7cf;fill-opacity:1;stroke:none;stroke-width:1;stroke-linecap:square;stroke-linejoin:miter;stroke-miterlimit:4;stroke-dasharray:none;stroke-dashoffset:0;stroke-opacity:1" />
          <circle
             transform="matrix(0.426932,0,0,0.426932,24.93794,12.8237)"
             id="path3366"
             style="fill:#bbbbbb;fill-opacity:1;stroke:none;stroke-width:1;stroke-linecap:square;stroke-linejoin:miter;stroke-miterlimit:4;stroke-dasharray:none;stroke-dashoffset:0;stroke-opacity:1"
             cx="60.059883"
             cy="66.967842"
             r="2.3422911" />
          <path
             style="fill:url(#radialGradient3725);fill-opacity:1;stroke:none;stroke-width:1;stroke-linecap:square;stroke-linejoin:miter;stroke-miterlimit:4;stroke-dasharray:none;stroke-dashoffset:0;stroke-opacity:1"
             d="M 50.644952,41.083195 C 48.774251,42.953896 46.313474,43.52578 45,42.485507 l 7.071068,-7.071068 c 1.040273,1.313474 0.444579,3.798061 -1.426116,5.668756 z"
             id="path3358"
             inkscape:connector-curvature="0" />
        </g>
        <g
           id="g5526"
           transform="translate(361.2324,190.2193)">
          <rect
             y="38"
             x="75"
             height="6.5613999"
             width="2.9585228"
             id="rect3368"
             style="fill:#bbbbbb;fill-opacity:1;stroke:none;stroke-width:1;stroke-linecap:square;stroke-linejoin:miter;stroke-miterlimit:4;stroke-dasharray:none;stroke-dashoffset:0;stroke-opacity:1" />
          <circle
             transform="matrix(0.853864,0,0,0.853865,23.717,-16.18149)"
             id="path3373"
             style="fill:#dddddd;fill-opacity:1;stroke:none;stroke-width:1;stroke-linecap:square;stroke-linejoin:miter;stroke-miterlimit:4;stroke-dasharray:none;stroke-dashoffset:0;stroke-opacity:1"
             cx="60.059883"
             cy="66.967842"
             r="2.3422911" />
          <circle
             style="fill:#555555;fill-opacity:1;stroke:none;stroke-width:1;stroke-linecap:square;stroke-linejoin:miter;stroke-miterlimit:4;stroke-dasharray:none;stroke-dashoffset:0;stroke-opacity:1"
             id="path3375"
             transform="matrix(0.426933,0,0,0.426932,49.35846,12.40926)"
             cx="60.059883"
             cy="66.967842"
             r="2.3422911" />
          <rect
             y="20"
             x="76"
             height="18"
             width="1"
             id="rect3378"
             style="fill:#dddddd;fill-opacity:1;stroke:none;stroke-width:1;stroke-linecap:square;stroke-linejoin:miter;stroke-miterlimit:4;stroke-dasharray:none;stroke-dashoffset:0;stroke-opacity:1" />
        </g>
        <g
           id="g5532"
           transform="translate(361.2324,190.2193)">
          <rect
             y="50.705364"
             x="45.858299"
             height="1"
             width="35"
             id="rect3411"
             style="fill:#555753;fill-opacity:1;stroke:none;stroke-width:1;stroke-linecap:square;stroke-linejoin:miter;stroke-miterlimit:4;stroke-dasharray:none;stroke-dashoffset:0;stroke-opacity:1" />
          <path
             style="fill:url(#linearGradient3727);fill-opacity:1;stroke:none;stroke-width:1;stroke-linecap:square;stroke-linejoin:miter;stroke-miterlimit:4;stroke-dashoffset:0;stroke-opacity:1"
             d="m 55.445881,49 0,4 5.0284,-0.99525 0,-2.0095 L 55.445881,49 Z"
             id="path3528"
             sodipodi:nodetypes="ccccc"
             inkscape:connector-curvature="0" />
          <path
             sodipodi:nodetypes="ccccc"
             id="path3530"
             d="m 69.474281,49 0,4 -5.0284,-0.99525 0,-2.0095 L 69.474281,49 Z"
             style="fill:url(#linearGradient3729);fill-opacity:1;stroke:none;stroke-width:1;stroke-linecap:square;stroke-linejoin:miter;stroke-miterlimit:4;stroke-dashoffset:0;stroke-opacity:1"
             inkscape:connector-curvature="0" />
          <g
             transform="matrix(0.954092,-0.299514,0.299514,0.954092,-15.46424,39.3473)"
             id="g3710">
            <g
               id="g3702"
               transform="matrix(0,1,-1,0,126.4956,-46)">
              <path
                 sodipodi:nodetypes="ccccc"
                 id="path3691"
                 d="m 78.9716,37 0,4 L 84,40.00475 84,37.99525 78.9716,37 Z"
                 style="fill:url(#linearGradient7605);fill-opacity:1;stroke:none;stroke-width:1;stroke-linecap:square;stroke-linejoin:miter;stroke-miterlimit:4;stroke-dashoffset:0;stroke-opacity:1"
                 inkscape:connector-curvature="0" />
              <path
                 style="fill:url(#linearGradient7607);fill-opacity:1;stroke:none;stroke-width:1;stroke-linecap:square;stroke-linejoin:miter;stroke-miterlimit:4;stroke-dashoffset:0;stroke-opacity:1"
                 d="m 93,37 0,4 -5.0284,-0.99525 0,-2.0095 L 93,37 Z"
                 id="path3693"
                 sodipodi:nodetypes="ccccc"
                 inkscape:connector-curvature="0" />
            </g>
            <rect
               y="37"
               x="85.474281"
               height="6"
               width="4.0000019"
               id="rect3526"
               style="fill:url(#linearGradient7609);fill-opacity:1;stroke:none;stroke-width:1;stroke-linecap:square;stroke-linejoin:miter;stroke-miterlimit:4;stroke-dasharray:none;stroke-dashoffset:0;stroke-opacity:1" />
            <circle
               style="fill:url(#radialGradient3737);fill-opacity:1;stroke:#555753;stroke-width:1;stroke-linecap:square;stroke-linejoin:miter;stroke-miterlimit:4;stroke-dasharray:none;stroke-dashoffset:0;stroke-opacity:1"
               id="path3534"
               transform="translate(30.52865,-19.01126)"
               cx="56.966999"
               cy="59.006905"
               r="2.0043497" />
          </g>
          <path
             id="path3718"
             d="m 62.5,43.4375 c -1.117964,0 -2.031249,0.24677 -2.03125,0.5625 l 1,5 2,0 0.96875,-4.8125 c 0.06384,-0.05558 0.09375,-0.125933 0.09375,-0.1875 0,-0.315729 -0.913286,-0.562502 -2.03125,-0.5625 z"
             style="fill:url(#linearGradient3739);fill-opacity:1;stroke:none;stroke-width:1;stroke-linecap:square;stroke-linejoin:miter;stroke-miterlimit:4;stroke-dashoffset:0;stroke-opacity:1"
             inkscape:connector-curvature="0" />
          <path
             style="fill:url(#linearGradient3741);fill-opacity:1;stroke:none;stroke-width:1;stroke-linecap:square;stroke-linejoin:miter;stroke-miterlimit:4;stroke-dashoffset:0;stroke-opacity:1"
             d="m 64.46008,58.0142 -4,0 0.99525,-5.0284 2.0095,0 0.99525,5.0284 z"
             id="path3720"
             sodipodi:nodetypes="ccccc"
             inkscape:connector-curvature="0" />
          <rect
             y="48"
             x="60"
             height="6"
             width="5"
             id="rect3522"
             style="fill:url(#linearGradient3743);fill-opacity:1;stroke:none;stroke-width:1;stroke-linecap:square;stroke-linejoin:miter;stroke-miterlimit:4;stroke-dasharray:none;stroke-dashoffset:0;stroke-opacity:1" />
          <g
             id="g3740"
             transform="matrix(-0.954092,-0.299514,-0.299514,0.954092,141.4462,39.3473)">
            <g
               transform="matrix(0,1,-1,0,126.4956,-46)"
               id="g3742">
              <path
                 style="fill:url(#linearGradient3731);fill-opacity:1;stroke:none;stroke-width:1;stroke-linecap:square;stroke-linejoin:miter;stroke-miterlimit:4;stroke-dashoffset:0;stroke-opacity:1"
                 d="m 78.9716,37 0,4 L 84,40.00475 84,37.99525 78.9716,37 Z"
                 id="path3744"
                 sodipodi:nodetypes="ccccc"
                 inkscape:connector-curvature="0" />
              <path
                 sodipodi:nodetypes="ccccc"
                 id="path3746"
                 d="m 93,37 0,4 -5.0284,-0.99525 0,-2.0095 L 93,37 Z"
                 style="fill:url(#linearGradient3733);fill-opacity:1;stroke:none;stroke-width:1;stroke-linecap:square;stroke-linejoin:miter;stroke-miterlimit:4;stroke-dashoffset:0;stroke-opacity:1"
                 inkscape:connector-curvature="0" />
            </g>
            <rect
               style="fill:url(#linearGradient3735);fill-opacity:1;stroke:none;stroke-width:1;stroke-linecap:square;stroke-linejoin:miter;stroke-miterlimit:4;stroke-dasharray:none;stroke-dashoffset:0;stroke-opacity:1"
               id="rect3748"
               width="4.0000019"
               height="6"
               x="85.474281"
               y="37" />
            <circle
               transform="translate(30.52865,-19.01126)"
               id="path3750"
               style="fill:url(#radialGradient3751);fill-opacity:1;stroke:#555753;stroke-width:1;stroke-linecap:square;stroke-linejoin:miter;stroke-miterlimit:4;stroke-dasharray:none;stroke-dashoffset:0;stroke-opacity:1"
               cx="56.966999"
               cy="59.006905"
               r="2.0043497" />
          </g>
          <ellipse
             transform="matrix(1.288553,0,0,6.550301,-17.37774,-322.2507)"
             id="path3760"
             style="fill:#323232;fill-opacity:1;stroke:none;stroke-width:1;stroke-linecap:square;stroke-linejoin:miter;stroke-miterlimit:4;stroke-dasharray:none;stroke-dashoffset:0;stroke-opacity:1"
             cx="61.997246"
             cy="58.056625"
             rx="1.5717613"
             ry="0.087320067" />
        </g>
        <g
           id="g5515"
           transform="translate(361.2324,190.2193)">
          <circle
             transform="matrix(2.687651,0,0,2.687651,-1.521738,-9.94203)"
             id="path2246"
             style="fill:url(#radialGradient3753);fill-opacity:1;stroke:none;stroke-width:0.37733486;stroke-linecap:square;stroke-linejoin:miter;stroke-miterlimit:4;stroke-dasharray:none;stroke-dashoffset:0;stroke-opacity:1"
             cx="23.820704"
             cy="11.884739"
             r="3.5346851" />
          <path
             sodipodi:nodetypes="cccc"
             id="rect3380"
             d="m 53.5,26 5,0 -5,12.020663 L 53.5,26 Z"
             style="fill:none;fill-opacity:1;stroke:#d3d7cf;stroke-width:1;stroke-linecap:square;stroke-linejoin:miter;stroke-miterlimit:4;stroke-dashoffset:0;stroke-opacity:1"
             inkscape:connector-curvature="0" />
          <path
             style="fill:none;fill-opacity:1;stroke:#d3d7cf;stroke-width:1;stroke-linecap:square;stroke-linejoin:miter;stroke-miterlimit:4;stroke-dashoffset:0;stroke-opacity:1"
             d="m 59.5,26 -5,0 5,12.020663 L 59.5,26 Z"
             id="path3383"
             sodipodi:nodetypes="cccc"
             inkscape:connector-curvature="0" />
          <path
             style="fill:none;fill-opacity:1;stroke:#d3d7cf;stroke-width:1;stroke-linecap:square;stroke-linejoin:miter;stroke-miterlimit:4;stroke-dashoffset:0;stroke-opacity:1"
             d="m 59.5,26 5,0 -5,12.020663 L 59.5,26 Z"
             id="path3389"
             sodipodi:nodetypes="cccc"
             inkscape:connector-curvature="0" />
          <path
             sodipodi:nodetypes="cccc"
             id="path3391"
             d="m 65.5,26 -5,0 5,12.020663 L 65.5,26 Z"
             style="fill:none;fill-opacity:1;stroke:#d3d7cf;stroke-width:1;stroke-linecap:square;stroke-linejoin:miter;stroke-miterlimit:4;stroke-dashoffset:0;stroke-opacity:1"
             inkscape:connector-curvature="0" />
          <path
             sodipodi:nodetypes="cccc"
             id="path3393"
             d="m 65.5,26 5,0 -5,12.020663 L 65.5,26 Z"
             style="fill:none;fill-opacity:1;stroke:#d3d7cf;stroke-width:1;stroke-linecap:square;stroke-linejoin:miter;stroke-miterlimit:4;stroke-dashoffset:0;stroke-opacity:1"
             inkscape:connector-curvature="0" />
          <path
             style="fill:none;fill-opacity:1;stroke:#d3d7cf;stroke-width:1;stroke-linecap:square;stroke-linejoin:miter;stroke-miterlimit:4;stroke-dashoffset:0;stroke-opacity:1"
             d="m 71.5,26 -5,0 5,12.020663 L 71.5,26 Z"
             id="path3395"
             sodipodi:nodetypes="cccc"
             inkscape:connector-curvature="0" />
          <circle
             style="fill:url(#radialGradient3755);fill-opacity:1;stroke:none;stroke-width:1;stroke-linecap:square;stroke-linejoin:miter;stroke-miterlimit:4;stroke-dasharray:none;stroke-dashoffset:0;stroke-opacity:1"
             id="path3405"
             transform="matrix(1.494263,0,0,1.494264,-30.24528,-80.56764)"
             cx="60.059883"
             cy="66.967842"
             r="2.3422911" />
          <ellipse
             transform="matrix(1.518351,-1.518351,0.707107,0.707107,-49.13902,108.7161)"
             id="path3807"
             style="fill:url(#radialGradient3757);fill-opacity:1;stroke:none;stroke-width:1;stroke-linecap:square;stroke-linejoin:miter;stroke-miterlimit:4;stroke-dasharray:none;stroke-dashoffset:0;stroke-opacity:1"
             cx="68.924637"
             cy="17.976717"
             rx="1.1642675"
             ry="3.0270956" />
        </g>
        <path
           style="fill:url(#linearGradient3759);fill-opacity:1;stroke:none;stroke-width:1;stroke-linecap:square;stroke-linejoin:miter;stroke-miterlimit:4;stroke-dasharray:none;stroke-dashoffset:0;stroke-opacity:1"
           d="m 1,51 0,3 15,0 0,-3 -15,0 z m 16,0 0,3 15,0 0,-3 -15,0 z m 16,0 0,3 14,0 0,-3 -14,0 z m 47,0 0,3 15,0 0,-3 -15,0 z m 16,0 0,3 15,0 0,-3 -15,0 z m 16,0 0,3 14,0 0,-3 -14,0 z m -111,4 0,3 15,0 0,-3 -15,0 z m 16,0 0,3 15,0 0,-3 -15,0 z m 16,0 0,3 14,0 0,-3 -14,0 z m 47,0 0,3 15,0 0,-3 -15,0 z m 16,0 0,3 15,0 0,-3 -15,0 z m 16,0 0,3 14,0 0,-3 -14,0 z m -111,4 0,3 15,0 0,-3 -15,0 z m 16,0 0,3 15,0 0,-3 -15,0 z m 16,0 0,3 14,0 0,-3 -14,0 z m 47,0 0,3 15,0 0,-3 -15,0 z m 16,0 0,3 15,0 0,-3 -15,0 z m 16,0 0,3 14,0 0,-3 -14,0 z m -111,4 0,3 15,0 0,-3 -15,0 z m 16,0 0,3 15,0 0,-3 -15,0 z m 16,0 0,3 14,0 0,-3 -14,0 z m 47,0 0,3 15,0 0,-3 -15,0 z m 16,0 0,3 15,0 0,-3 -15,0 z m 16,0 0,3 14,0 0,-3 -14,0 z"
           id="path2434"
           transform="translate(360.2143,202.7193)"
           inkscape:connector-curvature="0" />
      </g>
    </g>
  </g>
</svg>
