<?xml version="1.0" encoding="UTF-8" standalone="no"?>
<!-- Created with Inkscape (http://www.inkscape.org/) -->

<svg
   xmlns:dc="http://purl.org/dc/elements/1.1/"
   xmlns:cc="http://creativecommons.org/ns#"
   xmlns:rdf="http://www.w3.org/1999/02/22-rdf-syntax-ns#"
   xmlns:svg="http://www.w3.org/2000/svg"
   xmlns="http://www.w3.org/2000/svg"
   xmlns:xlink="http://www.w3.org/1999/xlink"
   xmlns:sodipodi="http://sodipodi.sourceforge.net/DTD/sodipodi-0.dtd"
   xmlns:inkscape="http://www.inkscape.org/namespaces/inkscape"
   width="48"
   height="48"
   viewBox="0 0 48 48"
   id="svg5475"
   version="1.1"
   inkscape:version="0.91 r13725"
   sodipodi:docname="player0.svg">
  <defs
     id="defs5477">
    <linearGradient
       gradientTransform="translate(286.0714,428.4336)"
       y2="58.453136"
       x2="33.076118"
       y1="90.803276"
       x1="36.648235"
       gradientUnits="userSpaceOnUse"
       id="linearGradient3836"
       xlink:href="#linearGradient3781"
       inkscape:collect="always" />
    <linearGradient
       id="linearGradient3781">
      <stop
         id="stop3783"
         offset="0"
         style="stop-color:#00438a;stop-opacity:1;" />
      <stop
         id="stop3785"
         offset="1"
         style="stop-color:#6193cf;stop-opacity:1;" />
    </linearGradient>
    <linearGradient
       y2="94.000015"
       x2="67"
       y1="94.000015"
       x1="58.032852"
       gradientTransform="matrix(-1.062629,0,0,1.044776,415.9867,411.2247)"
       gradientUnits="userSpaceOnUse"
       id="linearGradient4105"
       xlink:href="#linearGradient3447"
       inkscape:collect="always" />
    <linearGradient
       id="linearGradient3447">
      <stop
         style="stop-color:#555555;stop-opacity:1;"
         offset="0"
         id="stop3449" />
      <stop
         style="stop-color:#dddddd;stop-opacity:1;"
         offset="1"
         id="stop3451" />
    </linearGradient>
    <linearGradient
       y2="57.5"
       x2="50.522579"
       y1="62.46595"
       x1="52.670616"
       gradientTransform="matrix(2.999998,0,0,1.125002,193.5715,393.746)"
       gradientUnits="userSpaceOnUse"
       id="linearGradient4107"
       xlink:href="#linearGradient3447"
       inkscape:collect="always" />
    <linearGradient
       y2="36"
       x2="58.232788"
       y1="38.772762"
       x1="62"
       gradientTransform="translate(286.0714,420.4336)"
       gradientUnits="userSpaceOnUse"
       id="linearGradient4109"
       xlink:href="#linearGradient3447"
       inkscape:collect="always" />
    <linearGradient
       y2="51.390625"
       x2="79.5"
       y1="51.390625"
       x1="45.5"
       gradientTransform="matrix(1,0,0,1.042881,286.0714,418.8393)"
       gradientUnits="userSpaceOnUse"
       id="linearGradient4111"
       xlink:href="#linearGradient3543"
       inkscape:collect="always" />
    <linearGradient
       id="linearGradient3543">
      <stop
         id="stop3545"
         offset="0"
         style="stop-color:#6193cf;stop-opacity:1;" />
      <stop
         id="stop3547"
         offset="1"
         style="stop-color:#2c72c7;stop-opacity:1;" />
    </linearGradient>
    <linearGradient
       y2="451.43362"
       x2="352.28885"
       y1="464.66028"
       x1="363.21735"
       gradientTransform="translate(0,11.5)"
       gradientUnits="userSpaceOnUse"
       id="linearGradient4113"
       xlink:href="#linearGradient3392"
       inkscape:collect="always" />
    <linearGradient
       id="linearGradient3392"
       inkscape:collect="always">
      <stop
         id="stop3394"
         offset="0"
         style="stop-color:#000000;stop-opacity:1;" />
      <stop
         id="stop3396"
         offset="1"
         style="stop-color:#2c72c7;stop-opacity:1" />
    </linearGradient>
    <linearGradient
       y2="57.108002"
       x2="59.688946"
       y1="38.813713"
       x1="44.386734"
       gradientTransform="matrix(1,0,0,1.034188,286.0714,419.3626)"
       gradientUnits="userSpaceOnUse"
       id="linearGradient4115"
       xlink:href="#linearGradient3660"
       inkscape:collect="always" />
    <linearGradient
       id="linearGradient3660"
       inkscape:collect="always">
      <stop
         id="stop3662"
         offset="0"
         style="stop-color:#eeeeec;stop-opacity:1;" />
      <stop
         id="stop3664"
         offset="1"
         style="stop-color:#eeeeec;stop-opacity:0;" />
    </linearGradient>
    <linearGradient
       y2="57.5"
       x2="50.522579"
       y1="62.46595"
       x1="52.670616"
       gradientTransform="matrix(1,0,0,1.5,190.5,-39.75)"
       gradientUnits="userSpaceOnUse"
       id="linearGradient4117"
       xlink:href="#linearGradient3447"
       inkscape:collect="always" />
    <linearGradient
       y2="57.5"
       x2="50.522579"
       y1="62.46595"
       x1="52.670616"
       gradientTransform="matrix(1,0,0,1.5,204.5,-39.75)"
       gradientUnits="userSpaceOnUse"
       id="linearGradient4119"
       xlink:href="#linearGradient3447"
       inkscape:collect="always" />
    <linearGradient
       y2="57.5"
       x2="50.522579"
       y1="62.46595"
       x1="52.670616"
       gradientTransform="matrix(1,0,0,1.5,219.5,-39.75)"
       gradientUnits="userSpaceOnUse"
       id="linearGradient4121"
       xlink:href="#linearGradient3447"
       inkscape:collect="always" />
    <linearGradient
       y2="50.261288"
       x2="26.889061"
       y1="52.917656"
       x1="26.980202"
       gradientTransform="translate(223.9716,-2.500002)"
       gradientUnits="userSpaceOnUse"
       id="linearGradient4123"
       xlink:href="#linearGradient3447"
       inkscape:collect="always" />
    <linearGradient
       y2="50.261288"
       x2="26.889061"
       y1="52.917656"
       x1="26.980202"
       gradientTransform="matrix(-1,0,0,1,288,-2.500002)"
       gradientUnits="userSpaceOnUse"
       id="linearGradient4125"
       xlink:href="#linearGradient3447"
       inkscape:collect="always" />
    <radialGradient
       r="2.0043497"
       fy="59.006905"
       fx="56.966999"
       cy="59.006905"
       cx="56.966999"
       gradientUnits="userSpaceOnUse"
       id="radialGradient4127"
       xlink:href="#linearGradient3627"
       inkscape:collect="always" />
    <linearGradient
       id="linearGradient3627"
       inkscape:collect="always">
      <stop
         id="stop3629"
         offset="0"
         style="stop-color:#000000;stop-opacity:1;" />
      <stop
         id="stop3631"
         offset="1"
         style="stop-color:#000000;stop-opacity:0;" />
    </linearGradient>
    <radialGradient
       r="2.0043497"
       fy="59.006905"
       fx="56.966999"
       cy="59.006905"
       cx="56.966999"
       gradientUnits="userSpaceOnUse"
       id="radialGradient4129"
       xlink:href="#linearGradient3627"
       inkscape:collect="always" />
    <radialGradient
       r="2.4067907"
       fy="-0.57644701"
       fx="260.56058"
       cy="-0.57644701"
       cx="260.56058"
       gradientTransform="matrix(1.612129,-0.04321114,0.04375973,1.862821,-159.7214,11.37371)"
       gradientUnits="userSpaceOnUse"
       id="radialGradient4131"
       xlink:href="#linearGradient4189"
       inkscape:collect="always" />
    <linearGradient
       id="linearGradient4189">
      <stop
         id="stop4191"
         offset="0"
         style="stop-color:#dddddd;stop-opacity:1;" />
      <stop
         id="stop4193"
         offset="1"
         style="stop-color:#555555;stop-opacity:1;" />
    </linearGradient>
    <linearGradient
       y2="-6.2376609"
       x2="261.49231"
       y1="-14.22383"
       x1="255.50771"
       gradientTransform="translate(89.71512,455.4336)"
       gradientUnits="userSpaceOnUse"
       id="linearGradient4133"
       xlink:href="#linearGradient4189"
       inkscape:collect="always" />
    <linearGradient
       y2="-0.97011656"
       x2="261.51166"
       y1="-14.187572"
       x1="253.79198"
       gradientUnits="userSpaceOnUse"
       id="linearGradient4135"
       xlink:href="#linearGradient3447"
       inkscape:collect="always" />
    <linearGradient
       y2="-0.042575914"
       x2="264.68591"
       y1="-8.9701557"
       x1="253.19516"
       gradientUnits="userSpaceOnUse"
       id="linearGradient4265"
       xlink:href="#linearGradient3447"
       inkscape:collect="always" />
    <linearGradient
       y2="74"
       x2="61.163944"
       y1="77"
       x1="61.131393"
       gradientTransform="matrix(1.057143,0,0,1,283.5,419.9336)"
       gradientUnits="userSpaceOnUse"
       id="linearGradient4175"
       xlink:href="#linearGradient3415"
       inkscape:collect="always" />
    <linearGradient
       id="linearGradient3415">
      <stop
         id="stop3417"
         offset="0"
         style="stop-color:#2c72c7;stop-opacity:1;" />
      <stop
         id="stop3419"
         offset="1"
         style="stop-color:#dddddd;stop-opacity:1;" />
    </linearGradient>
    <radialGradient
       r="14.5"
       fy="98.601761"
       fx="68.076645"
       cy="98.601761"
       cx="68.076645"
       gradientTransform="matrix(1.422746,-0.563863,0.753328,1.900804,185.5397,376.8969)"
       gradientUnits="userSpaceOnUse"
       id="radialGradient4171"
       xlink:href="#linearGradient3447"
       inkscape:collect="always" />
    <linearGradient
       y2="70.987038"
       x2="73.772766"
       y1="87.588089"
       x1="58.375282"
       gradientTransform="matrix(1,0,0,1.035714,194,-12.375)"
       gradientUnits="userSpaceOnUse"
       id="linearGradient4155"
       xlink:href="#linearGradient3415"
       inkscape:collect="always" />
    <linearGradient
       y2="78.744263"
       x2="47.982601"
       y1="78.744263"
       x1="52.761616"
       gradientTransform="matrix(1.133858,0,0,1,187.0709,-9.000002)"
       gradientUnits="userSpaceOnUse"
       id="linearGradient4157"
       xlink:href="#linearGradient3447"
       inkscape:collect="always" />
    <linearGradient
       y2="78.744263"
       x2="47.982601"
       y1="78.744263"
       x1="52.761616"
       gradientTransform="matrix(1.133858,0,0,1,198.0709,-9.000002)"
       gradientUnits="userSpaceOnUse"
       id="linearGradient4159"
       xlink:href="#linearGradient3447"
       inkscape:collect="always" />
    <linearGradient
       y2="78.744263"
       x2="47.982601"
       y1="78.744263"
       x1="52.761616"
       gradientTransform="matrix(1.133858,0,0,1,209.0709,-9.000002)"
       gradientUnits="userSpaceOnUse"
       id="linearGradient4161"
       xlink:href="#linearGradient3447"
       inkscape:collect="always" />
  </defs>
  <sodipodi:namedview
     id="base"
     pagecolor="#ffffff"
     bordercolor="#666666"
     borderopacity="1.0"
     inkscape:pageopacity="0.0"
     inkscape:pageshadow="2"
     inkscape:zoom="1.979899"
     inkscape:cx="49.880437"
     inkscape:cy="75.53288"
     inkscape:document-units="px"
     inkscape:current-layer="layer1"
     showgrid="false"
     units="px"
     inkscape:window-width="1279"
     inkscape:window-height="1415"
     inkscape:window-x="1280"
     inkscape:window-y="0"
     inkscape:window-maximized="0" />
  <metadata
     id="metadata5480">
    <rdf:RDF>
      <cc:Work
         rdf:about="">
        <dc:format>image/svg+xml</dc:format>
        <dc:type
           rdf:resource="http://purl.org/dc/dcmitype/StillImage" />
        <dc:title></dc:title>
      </cc:Work>
    </rdf:RDF>
  </metadata>
  <g
     inkscape:label="Layer 1"
     inkscape:groupmode="layer"
     id="layer1"
     transform="translate(0,-1004.3622)">
    <g
       transform="matrix(0,-0.352736,0.352736,0,-150.28919,1150.9199)"
       id="ship_blue"
       inkscape:label="Layer 1">
      <g
         id="g4219">
        <rect
           style="fill:#a4c0e4;fill-opacity:1;stroke:#2c72c7;stroke-width:0.99999982;stroke-linecap:square;stroke-linejoin:miter;stroke-miterlimit:4;stroke-dasharray:none;stroke-dashoffset:0;stroke-opacity:1"
           id="rect2307"
           width="44"
           height="18.013161"
           x="286.57144"
           y="486.92044" />
        <rect
           y="486.93362"
           x="368.57144"
           height="18"
           width="44"
           id="rect2309"
           style="fill:#a4c0e4;fill-opacity:1;stroke:#2c72c7;stroke-width:0.99999988;stroke-linecap:square;stroke-linejoin:miter;stroke-miterlimit:4;stroke-dasharray:none;stroke-dashoffset:0;stroke-opacity:1" />
        <path
           style="fill:url(#linearGradient3836);fill-opacity:1;stroke:none;stroke-width:1;stroke-linecap:square;stroke-linejoin:miter;stroke-miterlimit:4;stroke-dasharray:none;stroke-dashoffset:0;stroke-opacity:1"
           d="m 288.07143,488.37111 0,7.03125 3,0 0,-7.03125 -3,0 z m 4,0 0,7.03125 3,0 0,-7.03125 -3,0 z m 4,0 0,7.03125 3,0 0,-7.03125 -3,0 z m 4,0 0,7.03125 3,0 0,-7.03125 -3,0 z m 4,0 0,7.03125 3,0 0,-7.03125 -3,0 z m 6,0 0,7.03125 3,0 0,-7.03125 -3,0 z m 4,0 0,7.03125 3,0 0,-7.03125 -3,0 z m 4,0 0,7.03125 3,0 0,-7.03125 -3,0 z m 4,0.0625 0,7 3,0 0,-7 -3,0 z m 4,0 0,7 3,0 0,-7 -3,0 z m 44,0 0,7 3,0 0,-7 -3,0 z m 4,0 0,7 3,0 0,-7 -3,0 z m 4,0 0,7 3,0 0,-7 -3,0 z m 4,0 0,7 3,0 0,-7 -3,0 z m 4,0 0,7 3,0 0,-7 -3,0 z m 6,0 0,7 3,0 0,-7 -3,0 z m 4,0 0,7 3,0 0,-7 -3,0 z m 4,0 0,7 3,0 0,-7 -3,0 z m 4,0 0,7 3,0 0,-7 -3,0 z m 4,0 0,7 3,0 0,-7 -3,0 z m -120,7.96875 0,7.03125 3,0 0,-7.03125 -3,0 z m 4,0 0,7.03125 3,0 0,-7.03125 -3,0 z m 4,0 0,7.03125 3,0 0,-7.03125 -3,0 z m 4,0 0,7.03125 3,0 0,-7.03125 -3,0 z m 4,0 0,7.03125 3,0 0,-7.03125 -3,0 z m 6,0 0,7.03125 3,0 0,-7.03125 -3,0 z m 4,0 0,7.03125 3,0 0,-7.03125 -3,0 z m 4,0 0,7.03125 3,0 0,-7.03125 -3,0 z m 4,0.0312 0,7 3,0 0,-7 -3,0 z m 4,0 0,7 3,0 0,-7 -3,0 z m 44,0 0,7 3,0 0,-7 -3,0 z m 4,0 0,7 3,0 0,-7 -3,0 z m 4,0 0,7 3,0 0,-7 -3,0 z m 4,0 0,7 3,0 0,-7 -3,0 z m 4,0 0,7 3,0 0,-7 -3,0 z m 6,0 0,7 3,0 0,-7 -3,0 z m 4,0 0,7 3,0 0,-7 -3,0 z m 4,0 0,7 3,0 0,-7 -3,0 z m 4,0 0,7 3,0 0,-7 -3,0 z m 4,0 0,7 3,0 0,-7 -3,0 z"
           id="rect3325"
           inkscape:connector-curvature="0" />
        <g
           id="g4177">
          <path
             sodipodi:nodetypes="ccccc"
             id="rect2313"
             d="m 358.03858,474.43361 -16.96715,0 6.37577,70 4.21561,0 6.37577,-70 z"
             style="fill:url(#linearGradient4105);fill-opacity:1;stroke:none;stroke-width:1;stroke-linecap:square;stroke-linejoin:miter;stroke-miterlimit:4;stroke-dashoffset:0;stroke-opacity:1"
             inkscape:connector-curvature="0" />
          <g
             transform="translate(0.83083,-0.499996)"
             id="g3889">
            <path
               style="opacity:0.5;fill:#000000;fill-opacity:1;stroke:none;stroke-width:1;stroke-linecap:square;stroke-linejoin:miter;stroke-miterlimit:4;stroke-dashoffset:0;stroke-opacity:1"
               d="m 340.27185,474.93361 0.93282,9.70742 15.0367,1.32672 0.99923,-11.03414 -16.96875,0 z"
               id="path3721"
               sodipodi:nodetypes="ccccc"
               inkscape:connector-curvature="0" />
            <path
               sodipodi:nodetypes="cccc"
               id="path4082"
               d="m 348.57143,449.93361 3.33333,0 -3.33333,9 0,-9 z"
               style="fill:none;fill-opacity:1;stroke:#d3d7cf;stroke-width:0.99999994;stroke-linecap:square;stroke-linejoin:miter;stroke-miterlimit:4;stroke-dashoffset:0;stroke-opacity:1"
               inkscape:connector-curvature="0" />
            <path
               style="fill:none;fill-opacity:1;stroke:#d3d7cf;stroke-width:0.99999994;stroke-linecap:square;stroke-linejoin:miter;stroke-miterlimit:4;stroke-dashoffset:0;stroke-opacity:1"
               d="m 352.57143,449.93361 -3.33334,0 3.33334,9 0,-9 z"
               id="path4084"
               sodipodi:nodetypes="cccc"
               inkscape:connector-curvature="0" />
            <rect
               y="459.43359"
               x="336.07144"
               height="1"
               width="35"
               id="rect3599"
               style="fill:#d3d7cf;fill-opacity:1;stroke:none;stroke-width:1;stroke-linecap:square;stroke-linejoin:miter;stroke-miterlimit:4;stroke-dasharray:none;stroke-dashoffset:0;stroke-opacity:1" />
            <rect
               style="fill:url(#linearGradient4107);fill-opacity:1;stroke:none;stroke-width:1;stroke-linecap:square;stroke-linejoin:miter;stroke-miterlimit:4;stroke-dasharray:none;stroke-dashoffset:0;stroke-opacity:1"
               id="rect3595"
               width="12"
               height="4.5000095"
               x="342.07144"
               y="458.43359" />
            <path
               id="path3603"
               d="m 345.56301,456.4336 c -1.32278,0 -2.39499,0.89043 -2.49158,2 l 5,0 c -0.0966,-1.10957 -1.18563,-2 -2.50842,-2 z"
               style="fill:url(#linearGradient4109);fill-opacity:1;stroke:none;stroke-width:0.99999994;stroke-linecap:square;stroke-linejoin:miter;stroke-miterlimit:4;stroke-dasharray:none;stroke-dashoffset:0;stroke-opacity:1"
               inkscape:connector-curvature="0" />
            <g
               id="g3694"
               transform="matrix(1,0,0,1.048406,0,-22.90855)">
              <path
                 style="fill:#80b3ff;fill-opacity:1;stroke:none;stroke-width:1;stroke-linecap:square;stroke-linejoin:miter;stroke-miterlimit:4;stroke-dashoffset:0;stroke-opacity:1"
                 d="m 331.57143,462.94891 34,0 -6.18182,18.98469 -21.63635,0 -6.18183,-18.98469 z"
                 id="path2315"
                 sodipodi:nodetypes="ccccc"
                 inkscape:connector-curvature="0" />
              <path
                 id="path3495"
                 d="m 331.57143,462.93361 0.3125,1.01029 c 0.40385,-0.41115 0.81477,-0.44115 1.46875,-0.78216 0.14604,-0.0761 0.23222,-0.14846 0.3125,-0.22813 l -2.09375,0 z m 5.09375,0 c 0.73761,0.85031 -0.40734,1.13837 -0.3125,1.33619 0.2038,0.42509 0.35873,1.54379 -0.5625,1.3036 -0.97815,-0.25502 -0.27215,-1.02184 -0.8125,-1.3036 -0.20294,-0.10582 -2.03158,-0.68508 -1.625,0.16295 0.20591,0.42948 0.44483,0.94894 1.0625,1.27101 0.50562,0.26365 1.08394,1.14065 0.15625,1.14065 -0.36929,0 -1.06545,-0.008 -1.75,-0.0326 l 0.40625,1.23843 c 0.27486,-0.11524 0.57434,-0.23431 1.0625,-0.48885 0.56268,-0.29341 1.1065,-0.29332 1.90625,-0.29332 0.35546,0 1.65625,0.0375 1.65625,0.42368 0,0.99729 -0.22507,1.23677 -1.09375,1.01029 -0.066,-0.0172 -2.06387,-0.29475 -1.5,0.29331 0.35564,0.37089 0.57486,1.79889 0.125,1.56432 -0.29319,-0.15288 -1.16402,-0.367 -1.53125,-0.6518 l 0.65625,2.08576 c 1.01794,-0.0443 0.74185,-0.76374 1.6875,-1.01029 0.64977,-0.16941 1.08056,-0.27955 1.5,-0.71698 0.26001,-0.27116 0.39028,-1.0078 0.875,-0.94511 0.0692,0.009 0.13298,0.053 0.21875,0.0978 0.31323,0.16333 1.34646,0.73186 0.5625,1.14065 -0.31606,0.1648 -1.23071,0.57414 -0.6875,1.14065 0.31934,0.33304 1.09542,1.03593 0.96875,1.56432 -0.067,0.27928 -1.19698,1.16626 -1.375,0.42367 -0.1281,-0.53439 -0.41295,-1.74182 -1.09375,-1.56432 -0.70577,0.18401 -0.5513,0.79553 -1.375,1.01029 -0.20548,0.0536 -0.53004,0.12399 -0.84375,0.19554 l 1.46875,4.49743 c 0.48369,-0.0209 0.95186,-0.10305 0.875,-0.42368 -0.14654,-0.61128 -0.30388,-1.03388 -0.8125,-1.56432 -0.45867,-0.47834 -0.24158,-1.68989 0.0312,-1.75986 0.039,-0.01 0.0537,-0.009 0.0937,0.0326 0.0452,0.0471 1.02385,1.91659 1.25,1.85763 0.53923,-0.14059 0.95072,-1.42017 1.34375,-1.01029 0.56128,0.58535 0.44414,1.26409 -0.125,1.85763 -0.19818,0.20669 -0.5184,1.48765 -0.8125,1.56433 -0.19187,0.05 -0.97679,0.32053 -1.4375,0.6518 l 0.9375,2.90051 0.53125,0 c 0.0263,-0.14198 0.0241,-0.32326 -0.0312,-0.55403 -0.25676,-1.07107 0.23436,-1.20581 0.6875,-2.15094 0.20221,-0.42177 0.39728,-1.59578 0.8125,-1.27101 0.15442,0.12078 1.34662,1.13915 0.53125,1.56432 -0.50096,0.26122 -1.04841,0.61599 -0.65625,1.43396 0.12014,0.25059 -0.0316,0.61448 -0.21875,0.9777 l 2.03125,0 c -0.26894,-0.38102 -0.50313,-0.87341 -0.3125,-1.27101 0.39729,-0.82865 0.7179,-1.79334 1.625,-0.84734 0.2186,0.22797 1.32184,1.4894 1.65625,1.14065 0.15183,-0.15834 1.53503,-0.6074 1.5,-0.71698 -0.27856,-0.87151 -0.22632,-1.22974 0.28125,-1.23842 0.16919,-0.003 0.38679,0.0275 0.65625,0.0978 0.2361,1.23114 0.42569,0.71698 1.25,0.71698 0.56619,0 1.45186,0.59542 0.65625,1.01029 -0.14995,0.0782 -1.56567,0.23144 -1.75,0.42367 -0.18176,0.18956 -0.30941,0.44374 -0.4375,0.68439 l 2.375,0 c 0.0873,-0.0396 0.16085,-0.0932 0.25,-0.13036 0.8498,-0.3545 1.25093,0.0613 1.5,-0.9777 0.18014,-0.75147 0.81345,-0.71897 1.09375,-1.3036 0.23212,-0.48415 0.35419,-1.32539 0.53125,-1.69468 0.42632,-0.88921 0.1401,-1.0103 -0.8125,-1.0103 -0.67454,0 -0.85561,1.52162 -1.5,1.85764 -0.28934,0.15087 -1.75678,-0.56111 -1.90625,-0.71698 -0.44731,-0.4665 1.17769,-0.51121 1.625,-0.9777 0.6332,-0.66036 0.0366,-1.26544 -0.28125,-1.59692 -0.76158,-0.79424 -0.9375,-0.89558 -0.9375,-1.98799 0,-0.539 1.63857,-1.32697 1.78125,-1.40137 0.0382,-0.0199 0.0694,-0.0319 0.0937,-0.0326 0.36589,-0.0111 -0.71497,1.98898 -0.0937,2.15094 0.74787,0.19499 0.97601,0.92767 1.21875,1.43396 0.44203,0.92197 1.11397,-0.6288 1.21875,-0.84734 0.41806,-0.87196 0.3008,-1.15999 1.375,-0.87993 0.23062,0.0601 -0.63502,1.63871 -0.6875,1.85763 -0.0412,0.17185 0.88151,0.14937 0.40625,1.14065 -0.21336,0.44503 1.13438,0.7926 1.65625,1.0103 0.33116,-0.34536 1.21276,-0.52457 1.90625,-0.16295 0.57164,0.29807 -0.03,1.37395 0.125,2.02058 0.005,0.0197 -1.5,-0.60407 -1.5,0.84734 0,0.62461 -1.30211,-0.66808 -1.78125,-0.29331 -0.40881,0.31975 -1.26263,1.0907 -1.78125,1.69468 l 4.09375,0 c 0.11977,-0.0496 0.25777,-0.0835 0.4375,-0.13036 0.27566,-0.0719 1.67134,-0.2585 1.78125,-0.71698 0.0185,-0.0771 0.0793,-1.40137 0.53125,-1.40137 0.27922,0 0.58034,-0.043 0.875,-0.13036 l 3.46875,-10.65694 c -0.34733,0.38396 -1.09729,0.6518 -2.5625,0.6518 -0.68579,0 -1.23539,-0.59858 -1.90625,-0.42367 -0.39312,0.10249 -1.9375,0.49653 -1.9375,-0.29331 0,-1.56022 0.72184,-2.83534 2.0625,-2.83534 0.65031,0 2.45268,0.73558 2.59375,0 0.13884,-0.72397 0.15769,-1.91225 0.125,-2.2813 0.38366,0.08 0.87005,0.012 0.96875,0.42367 0.0834,0.34808 -0.12255,2.28386 0,2.41166 0.3632,0.37878 0.83617,0.98528 0.90625,1.56432 l 1.6875,-5.18181 -6.65625,0 c -0.13498,0.5887 -0.3315,1.13426 -0.71875,1.33619 -0.69814,0.36404 -1.05422,0.77617 -1.78125,0.58662 -1.07022,-0.27902 -0.12566,-1.27101 0.5625,-1.27101 0.29268,0 0.3816,-0.28933 0.40625,-0.6518 l -2.875,0 c -0.0785,0.35194 -0.21366,0.68173 -0.40625,0.78216 -0.70172,0.36591 -1.38044,0.628 -1.90625,0.84734 -0.87501,0.36501 -1.05365,1.15926 0,1.43396 0.86151,0.22462 1.35404,0.44554 0.8125,1.01029 -0.53087,0.55364 -1.02852,0.36134 -0.28125,1.14065 0.62669,0.65356 0.6179,0.91067 1.375,1.10807 0.53729,0.14008 0.78436,1.63599 0.96875,2.02058 0.25289,0.52747 -1.07366,0.59768 -1.53125,0.71698 -0.80947,0.21104 -1.19304,0.68728 -1.75,0.9777 -0.47373,0.24702 0.30913,-1.36174 0.40625,-1.56432 0.37735,-0.78706 0.16609,-1.16479 0,-1.85763 -0.25719,-1.07288 -0.83314,-0.87296 -1.25,-0.29331 -0.49154,0.6835 0.15373,0.44745 -0.9375,0.16295 -0.24839,-0.0648 0.89097,-1.67875 0.9375,-1.72727 0.68459,-0.71395 0.20276,-1.14143 -0.125,-1.82505 -0.0738,-0.15398 -1.74731,-0.71698 -2.0625,-0.71698 -0.63018,0 -0.92327,0.98351 -1.0625,1.56432 -0.20468,0.85384 -1.26054,1.27641 -0.15625,1.56433 0.51706,0.1348 -0.98293,0.68884 -1.5,0.55403 -0.68068,-0.17747 0.0321,-1.43769 0.125,-1.82505 0.19439,-0.81091 0.19619,-1.64762 0.4375,-2.15094 0.34814,-0.72613 1.12927,-1.00917 1.75,-0.84734 0.80296,0.20935 1.01428,0.33475 1.65625,0 0.27615,-0.14399 0.24918,-0.60538 0.125,-1.07547 l -4.5,0 c -0.15054,0.4841 -0.34925,0.98343 -0.5625,1.20583 -0.42572,0.44397 -0.8125,2.23227 -0.8125,2.86792 0,0.78607 -0.9375,-1.36487 -0.9375,-2.15094 0,-0.80259 1.04732,-0.63132 -0.40625,-1.01029 -0.72945,-0.19018 -1.37263,-0.13159 -1.9375,0.16295 -1.66548,0.86845 -0.79544,2.33463 0,2.54202 1.00462,0.26193 -0.21404,1.25349 -0.40625,1.3036 -0.81247,0.21183 -0.53126,0.87991 -1.09375,-0.2933 -0.3858,-0.80468 0.0269,-1.11264 -0.53125,-1.69469 -0.48349,-0.50422 -1.43079,0.3245 -1.90625,0.42367 -0.46243,0.0964 0.21137,-0.8943 0.65625,-1.01029 0.74641,-0.1946 1.02558,-0.35061 1.5,-1.01029 0.31744,-0.44141 0.2749,-0.86961 0.21875,-1.33619 l -2.75,0 z m 18.40625,2.96569 c 0.0113,0.01 0.0254,0.0447 0,0.0978 1.34837,0 1.09375,0.25195 1.09375,1.01029 0,0.4972 -0.84319,1.69701 -0.84375,1.69469 -0.12265,-0.51163 -1.03091,-1.30218 -1.09375,-1.56433 -0.0966,-0.40311 0.76468,-1.3054 0.84375,-1.23842 z m -5.875,1.10806 c 0.11228,0.0878 0.0924,0.1728 0.0312,0.29332 0.0844,0.6225 0.0674,1.29848 -0.3125,1.69468 -0.44905,0.4683 -0.78372,1.2039 -0.15625,1.69468 0.88354,0.69106 0.64211,1.01029 -0.40625,1.01029 -0.47923,0 -1.90235,-0.0489 -2.03125,-0.58662 -0.0962,-0.40116 0.43571,-1.04102 0.9375,-1.56432 0.45653,-0.47611 1.25,-0.46433 1.25,-1.14065 0,-0.38457 0.55813,-0.79141 0.71875,-1.10806 -0.0138,-0.10167 -0.0126,-0.196 -0.0312,-0.29332 z m -6.28125,1.14065 c 0.5279,0.22022 0.58183,0.23821 0.9375,0.42368 0.0463,0.0242 1.79888,0.61085 1.78125,0.68439 -0.16744,0.69847 -0.5625,0.88838 -0.5625,1.72727 0,0.56142 -0.24408,1.73345 -0.9375,1.01029 -0.29819,-0.31098 -0.20168,-1.76994 -0.40625,-1.72727 -0.23633,0.0493 -2.47553,0.30744 -2.1875,-0.29331 0.334,-0.69664 2.09954,-1.63614 1.375,-1.82505 z m 13.8125,2.60721 c 0.21646,-0.0348 0.47824,0.0425 0.78125,0.35849 0.57705,0.6018 -0.0153,1.79172 -0.125,2.02058 -0.21261,0.44345 1.2597,0.0247 1.375,-0.45626 0.21859,-0.91182 0.15151,-1.63197 1.09375,-1.14065 0.54061,0.2819 1.09375,-1.00051 1.09375,0.71698 0,0.68065 -0.8165,0.98605 -1.09375,1.56432 -0.1993,0.4157 0.5782,1.30329 0.40625,2.02058 -0.13121,0.54735 -0.54154,1.21618 -0.6875,1.82505 -0.0593,0.24751 -1.25,-1.8256 -1.25,-2.41167 0,-0.86311 -0.96233,-0.55403 -1.625,-0.55403 -1.74763,0 -0.76254,-0.93203 0.28125,-2.02058 0.42493,-0.44315 -0.56742,-0.82435 -0.8125,-0.9777 0,-0.45745 0.20174,-0.88712 0.5625,-0.94511 z m -15.25,0.68439 c 0.13545,0.0108 0.29016,0.0512 0.46875,0.0978 0.52376,0.13655 0.39769,1.59691 0.8125,1.59691 0.48564,0 1.2613,0.21772 1.90625,0.55403 1.47258,0.76786 1.41113,-1.18699 1.5,-1.14065 0.0968,0.1682 0.40824,2.14332 0.4375,2.15094 0.30774,0.0802 1.706,1.14066 1.5,1.14065 -1.04287,0 -0.48957,0.77944 -1.25,0.9777 -0.62417,0.16274 -0.72296,1.20693 -1.09375,1.30361 -1.11508,0.29072 -0.73285,-0.16613 -1.21875,0.84734 -0.44393,0.92594 -0.96875,0.50354 -0.96875,-0.58662 0,-0.76572 -0.90672,-2.62375 -0.25,-2.28131 0.29108,0.15179 1.32469,1.06277 1.5,0.87994 0.13576,-0.14159 1.28021,-0.87559 1.34375,-1.14066 0.14814,-0.61795 -0.8377,-1.29622 -0.9375,-0.87993 -0.21634,0.90245 -0.927,0.5921 -1.5,0.29331 -0.46136,-0.24057 -1.375,-0.57028 -1.375,0.29331 0,0.60035 0.57347,1.5586 0,1.85763 -0.64755,0.33766 -1.375,0.85446 -1.375,-0.42366 0,-1.0362 -0.58918,-1.31712 -0.6875,-1.72728 -0.36462,-1.52104 0.45339,-0.76614 1.09375,-1.43396 0.8453,-0.88155 -0.34874,-0.80298 -0.53125,-1.56432 -0.10169,-0.42421 -0.0258,-0.70054 0.28125,-0.78216 0.0921,-0.0245 0.2083,-0.0434 0.34375,-0.0326 z"
                 style="fill:url(#linearGradient4111);fill-opacity:1;stroke:none;stroke-width:1;stroke-linecap:square;stroke-linejoin:miter;stroke-miterlimit:4;stroke-dashoffset:0;stroke-opacity:1"
                 inkscape:connector-curvature="0" />
              <path
                 sodipodi:nodetypes="ccccc"
                 id="rect3649"
                 d="m 365.40473,463.07022 -9.3018,-0.13661 -2.99445,19.07657 6.3147,-0.0632 5.98155,-18.87677 z"
                 style="opacity:0.66000001;fill:url(#linearGradient4113);fill-opacity:1;stroke:none;stroke-width:1;stroke-linecap:square;stroke-linejoin:miter;stroke-miterlimit:4;stroke-dashoffset:0;stroke-opacity:1"
                 inkscape:connector-curvature="0" />
              <path
                 style="fill:url(#linearGradient4115);fill-opacity:1;stroke:none;stroke-width:1;stroke-linecap:square;stroke-linejoin:miter;stroke-miterlimit:4;stroke-dashoffset:0;stroke-opacity:1"
                 d="m 341.08883,462.93361 -9.84823,0 6.29477,18.80336 6.45131,0.0734 -2.89785,-18.87677 z"
                 id="path2413"
                 sodipodi:nodetypes="ccccc"
                 inkscape:connector-curvature="0" />
            </g>
            <g
               id="g5401"
               transform="translate(92.07143,429.4336)">
              <rect
                 y="49.499996"
                 x="242.5"
                 height="8.5"
                 width="28.000004"
                 id="rect3647"
                 style="fill:none;fill-opacity:1;stroke:#d3d7cf;stroke-width:0.99999994;stroke-linecap:square;stroke-linejoin:miter;stroke-miterlimit:4;stroke-dasharray:none;stroke-dashoffset:0;stroke-opacity:1" />
              <rect
                 y="46.499996"
                 x="240"
                 height="6"
                 width="4"
                 id="rect3575"
                 style="fill:url(#linearGradient4117);fill-opacity:1;stroke:none;stroke-width:1;stroke-linecap:square;stroke-linejoin:miter;stroke-miterlimit:4;stroke-dasharray:none;stroke-dashoffset:0;stroke-opacity:1" />
              <rect
                 style="fill:url(#linearGradient4119);fill-opacity:1;stroke:none;stroke-width:1;stroke-linecap:square;stroke-linejoin:miter;stroke-miterlimit:4;stroke-dasharray:none;stroke-dashoffset:0;stroke-opacity:1"
                 id="rect3585"
                 width="4.0000019"
                 height="6"
                 x="254"
                 y="46.499996" />
              <rect
                 y="46.499996"
                 x="269"
                 height="6"
                 width="4.0000019"
                 id="rect3609"
                 style="fill:url(#linearGradient4121);fill-opacity:1;stroke:none;stroke-width:1;stroke-linecap:square;stroke-linejoin:miter;stroke-miterlimit:4;stroke-dasharray:none;stroke-dashoffset:0;stroke-opacity:1" />
              <path
                 sodipodi:nodetypes="ccccc"
                 id="rect3613"
                 d="m 248.9716,47.499998 0,4 5.0284,-0.99525 0,-2.0095 -5.0284,-0.99525 z"
                 style="fill:url(#linearGradient4123);fill-opacity:1;stroke:none;stroke-width:1;stroke-linecap:square;stroke-linejoin:miter;stroke-miterlimit:4;stroke-dashoffset:0;stroke-opacity:1"
                 inkscape:connector-curvature="0" />
              <path
                 style="fill:url(#linearGradient4125);fill-opacity:1;stroke:none;stroke-width:1;stroke-linecap:square;stroke-linejoin:miter;stroke-miterlimit:4;stroke-dashoffset:0;stroke-opacity:1"
                 d="m 263,47.499998 0,4 -5.02841,-0.99525 0,-2.0095 L 263,47.499998 Z"
                 id="path3621"
                 sodipodi:nodetypes="ccccc"
                 inkscape:connector-curvature="0" />
              <circle
                 transform="translate(185.0373,-9.511256)"
                 id="path3625"
                 style="fill:url(#radialGradient4127);fill-opacity:1;stroke:#555753;stroke-width:1;stroke-linecap:square;stroke-linejoin:miter;stroke-miterlimit:4;stroke-dasharray:none;stroke-dashoffset:0;stroke-opacity:1"
                 cx="56.966999"
                 cy="59.006905"
                 r="2.0043497" />
              <circle
                 style="fill:url(#radialGradient4129);fill-opacity:1;stroke:#555753;stroke-width:1;stroke-linecap:square;stroke-linejoin:miter;stroke-miterlimit:4;stroke-dasharray:none;stroke-dashoffset:0;stroke-opacity:1"
                 id="path3641"
                 transform="translate(214.0544,-9.511256)"
                 cx="56.966999"
                 cy="59.006905"
                 r="2.0043497" />
            </g>
            <g
               id="g3712">
              <ellipse
                 transform="matrix(1.03873,0,0,0.972426,78.50995,446.5066)"
                 id="path4099"
                 style="fill:url(#radialGradient4131);fill-opacity:1;stroke:none;stroke-width:1;stroke-linecap:square;stroke-linejoin:miter;stroke-miterlimit:4;stroke-dasharray:none;stroke-dashoffset:0;stroke-opacity:1"
                 cx="261.5744"
                 cy="0.95329946"
                 rx="2.4067907"
                 ry="2.5708902" />
              <path
                 id="path3962"
                 d="m 345.71512,439.93361 0,13 c 2.76,0 5,-2.912 5,-6.5 0,-3.588 -2.24,-6.5 -5,-6.5 z"
                 style="fill:url(#linearGradient4133);fill-opacity:1;stroke:none;stroke-width:1;stroke-linecap:square;stroke-linejoin:miter;stroke-miterlimit:4;stroke-dasharray:none;stroke-dashoffset:0;stroke-opacity:1"
                 inkscape:connector-curvature="0" />
              <ellipse
                 transform="matrix(0.965013,0,0,1.022197,98.89664,455.6029)"
                 id="path3960"
                 style="fill:url(#linearGradient4135);fill-opacity:1;stroke:none;stroke-width:1;stroke-linecap:square;stroke-linejoin:miter;stroke-miterlimit:4;stroke-dasharray:none;stroke-dashoffset:0;stroke-opacity:1"
                 cx="255.76711"
                 cy="-8.9701557"
                 rx="3.1087713"
                 ry="6.3588505" />
              <ellipse
                 style="fill:url(#linearGradient4265);fill-opacity:1;stroke:none;stroke-width:1;stroke-linecap:square;stroke-linejoin:miter;stroke-miterlimit:4;stroke-dasharray:none;stroke-dashoffset:0;stroke-opacity:1"
                 id="path4138"
                 transform="matrix(0.482505,0,0,0.707675,223.8061,452.7816)"
                 cx="255.76711"
                 cy="-8.9701557"
                 rx="3.1087713"
                 ry="6.3588505" />
              <path
                 id="path3988"
                 d="m 348.71512,445.93361 -5,0 c 0,0 0,1 0,1 l 5,0 0,-1 z"
                 style="fill:#2e3436;fill-rule:evenodd;stroke:none;stroke-width:1px;stroke-linecap:butt;stroke-linejoin:miter;stroke-opacity:1"
                 inkscape:connector-curvature="0" />
              <path
                 sodipodi:nodetypes="ccccc"
                 style="fill:#2e3436;fill-rule:evenodd;stroke:none;stroke-width:1px;stroke-linecap:butt;stroke-linejoin:miter;stroke-opacity:1"
                 d="m 346.5936,442.92512 -2.87848,3.00849 c 0,0 0,1 0,1 l 3,-3.11789 -0.12152,-0.8906 z"
                 id="path4134"
                 inkscape:connector-curvature="0" />
              <path
                 id="path4136"
                 d="m 346.5936,449.93361 -2.87848,-3.00849 c 0,0 0,-1 0,-1 l 3,3.11789 -0.12152,0.8906 z"
                 style="fill:#2e3436;fill-rule:evenodd;stroke:none;stroke-width:1px;stroke-linecap:butt;stroke-linejoin:miter;stroke-opacity:1"
                 sodipodi:nodetypes="ccccc"
                 inkscape:connector-curvature="0" />
            </g>
          </g>
          <rect
             style="fill:url(#linearGradient4175);fill-opacity:1;stroke:none;stroke-width:1;stroke-linecap:square;stroke-linejoin:miter;stroke-miterlimit:4;stroke-dasharray:none;stroke-dashoffset:0;stroke-opacity:1"
             id="rect3323"
             width="36.999989"
             height="3"
             x="331.07144"
             y="493.93359" />
          <path
             style="fill:none;fill-opacity:1;stroke:#555753;stroke-width:1.00000012;stroke-linecap:square;stroke-linejoin:miter;stroke-miterlimit:4;stroke-dashoffset:0;stroke-opacity:1"
             d="m 337.57142,530.9336 24,0 -10.0137,12.00001 -3.97259,0 -10.01371,-12.00001 z"
             id="path2350"
             sodipodi:nodetypes="ccccc"
             inkscape:connector-curvature="0" />
          <path
             id="path2317"
             d="m 349.51925,520.43361 c -8.20125,0 -14.84893,4.89738 -15.44781,11 l 30.99999,0 c -0.59888,-6.10262 -7.35093,-11 -15.55218,-11 z"
             style="fill:url(#radialGradient4171);fill-opacity:1;stroke:none;stroke-width:0.99999994;stroke-linecap:square;stroke-linejoin:miter;stroke-miterlimit:4;stroke-dasharray:none;stroke-dashoffset:0;stroke-opacity:1"
             inkscape:connector-curvature="0" />
          <rect
             y="520.43359"
             x="343.07144"
             height="2"
             width="14"
             id="rect3413"
             style="fill:#555753;fill-opacity:1;stroke:none;stroke-width:1;stroke-linecap:square;stroke-linejoin:miter;stroke-miterlimit:4;stroke-dasharray:none;stroke-dashoffset:0;stroke-opacity:1" />
          <g
             transform="translate(93.07143,429.9336)"
             id="g5418">
            <rect
               style="fill:url(#linearGradient4155);fill-opacity:1;stroke:none;stroke-width:0.99999994;stroke-linecap:square;stroke-linejoin:miter;stroke-miterlimit:4;stroke-dasharray:none;stroke-dashoffset:0;stroke-opacity:1"
               id="rect3321"
               width="20.000006"
               height="29"
               x="246.5"
               y="56.499996" />
            <path
               style="opacity:0.6;fill:#000000;fill-opacity:1;stroke:none;stroke-width:0.99999994;stroke-linecap:square;stroke-linejoin:miter;stroke-miterlimit:4;stroke-dasharray:none;stroke-dashoffset:0;stroke-opacity:1"
               d="m 246.5,56.499998 0,29 4.5,0 0,-24.84375 c 0,-2.296268 -1.77006,-4.15625 -3.96875,-4.15625 l -0.53125,0 z m 10.46875,0 c -2.19869,0 -3.96875,1.859981 -3.96875,4.15625 l 0,24.84375 9,0 0,-24.84375 c 0,-2.296268 -1.77006,-4.15625 -3.96875,-4.15625 l -1.0625,0 z m 9.53125,0.28125 c -1.47366,0.607376 -2.5,2.116517 -2.5,3.875 l 0,24.84375 2.5,0 0,-28.71875 z"
               id="rect3477"
               inkscape:connector-curvature="0" />
            <rect
               style="fill:url(#linearGradient4157);fill-opacity:1;stroke:none;stroke-width:0.99999994;stroke-linecap:square;stroke-linejoin:miter;stroke-miterlimit:4;stroke-dasharray:none;stroke-dashoffset:0;stroke-opacity:1"
               id="rect2321"
               width="9"
               height="35"
               x="241"
               y="53.499996"
               ry="4.1448889"
               rx="3.96875" />
            <rect
               style="fill:url(#linearGradient4159);fill-opacity:1;stroke:none;stroke-width:0.99999994;stroke-linecap:square;stroke-linejoin:miter;stroke-miterlimit:4;stroke-dasharray:none;stroke-dashoffset:0;stroke-opacity:1"
               id="rect3457"
               width="9"
               height="35"
               x="252"
               y="53.499996"
               ry="4.1448889"
               rx="3.96875" />
            <rect
               rx="3.96875"
               ry="4.1448889"
               y="53.499996"
               x="263"
               height="35"
               width="9"
               id="rect3453"
               style="fill:url(#linearGradient4161);fill-opacity:1;stroke:none;stroke-width:0.99999994;stroke-linecap:square;stroke-linejoin:miter;stroke-miterlimit:4;stroke-dasharray:none;stroke-dashoffset:0;stroke-opacity:1" />
          </g>
        </g>
      </g>
    </g>
  </g>
</svg>
