<?xml version="1.0" encoding="UTF-8" standalone="no"?>
<!-- Created with Inkscape (http://www.inkscape.org/) -->

<svg
   xmlns:dc="http://purl.org/dc/elements/1.1/"
   xmlns:cc="http://creativecommons.org/ns#"
   xmlns:rdf="http://www.w3.org/1999/02/22-rdf-syntax-ns#"
   xmlns:svg="http://www.w3.org/2000/svg"
   xmlns="http://www.w3.org/2000/svg"
   xmlns:xlink="http://www.w3.org/1999/xlink"
   xmlns:sodipodi="http://sodipodi.sourceforge.net/DTD/sodipodi-0.dtd"
   xmlns:inkscape="http://www.inkscape.org/namespaces/inkscape"
   width="48"
   height="48"
   viewBox="0 0 48 48"
   id="svg4851"
   version="1.1"
   inkscape:version="0.91 r13725"
   sodipodi:docname="sun.svg">
  <defs
     id="defs4853">
    <radialGradient
       r="30.228218"
       id="radialGradient13304"
       fx="186.34198"
       fy="54.391422"
       gradientUnits="userSpaceOnUse"
       inkscape:collect="always"
       cy="54.391422"
       cx="186.34198"
       xlink:href="#linearGradient13288"
       gradientTransform="matrix(1.13609,0,0,-1.13609,-25.20126,113.5628)" />
    <linearGradient
       id="linearGradient13288">
      <stop
         offset="0"
         style="stop-color:#fdcb00;stop-opacity:1;"
         id="stop13290" />
      <stop
         offset="0.806952"
         style="stop-color:#fed103;stop-opacity:1;"
         id="stop13298" />
      <stop
         offset="0.89830506"
         style="stop-color:#ffac06;stop-opacity:1;"
         id="stop13296" />
      <stop
         offset="1"
         style="stop-color:#ff9813;stop-opacity:1;"
         id="stop13292" />
    </linearGradient>
    <radialGradient
       r="9"
       id="radialGradient13306"
       fx="57"
       fy="40.5"
       gradientUnits="userSpaceOnUse"
       inkscape:collect="always"
       cy="40.5"
       cx="57"
       xlink:href="#linearGradient13145"
       gradientTransform="matrix(1,0,0,0.9444444,0,2.25)" />
    <linearGradient
       id="linearGradient13145">
      <stop
         offset="0"
         style="stop-color:#ffffff;stop-opacity:1;"
         id="stop13147" />
      <stop
         offset="0.27966103"
         style="stop-color:#fff1a5;stop-opacity:1;"
         id="stop3215" />
      <stop
         offset="0.55932206"
         style="stop-color:#ff8910;stop-opacity:1;"
         id="stop13153" />
      <stop
         offset="1"
         style="stop-color:#f98c00;stop-opacity:0;"
         id="stop13149" />
    </linearGradient>
  </defs>
  <sodipodi:namedview
     id="base"
     pagecolor="#ffffff"
     bordercolor="#666666"
     borderopacity="1.0"
     inkscape:pageopacity="0.0"
     inkscape:pageshadow="2"
     inkscape:zoom="2.8"
     inkscape:cx="-96.5"
     inkscape:cy="35.126778"
     inkscape:document-units="px"
     inkscape:current-layer="layer1"
     showgrid="false"
     units="px"
     inkscape:window-width="1805"
     inkscape:window-height="1415"
     inkscape:window-x="754"
     inkscape:window-y="0"
     inkscape:window-maximized="0" />
  <metadata
     id="metadata4856">
    <rdf:RDF>
      <cc:Work
         rdf:about="">
        <dc:format>image/svg+xml</dc:format>
        <dc:type
           rdf:resource="http://purl.org/dc/dcmitype/StillImage" />
        <dc:title></dc:title>
      </cc:Work>
    </rdf:RDF>
  </metadata>
  <g
     inkscape:label="Layer 1"
     inkscape:groupmode="layer"
     id="layer1"
     transform="translate(0,-1004.3622)">
    <g
       id="sun"
       transform="matrix(0.55882354,0,0,0.55882354,-80.47059,998.71514)">
      <path
         style="fill:url(#radialGradient13304);fill-opacity:1;stroke:none;stroke-opacity:1"
         id="path13308"
         d="m 181.88665,87.841978 c 1.43996,-0.998925 4.88647,-3.672489 0.8184,-2.575793 -3.63005,0.182259 -6.53587,-5.049742 -10.07651,-2.501518 0.38206,-4.040588 -3.22747,-4.662313 -5.76687,-6.670897 -0.84906,-0.545251 -3.26041,-2.894524 -1.41878,-0.620772 1.46913,1.862822 0.46234,2.238547 -0.6228,0.452727 -3.23068,-3.889711 -9.06109,-6.089771 -9.76789,-11.733941 -0.77475,-3.9982 -5.44328,-9.020105 -1.0035,-12.36874 2.43913,-2.004971 1.39617,-5.216478 0.60417,-7.168906 1.26977,1.647227 3.82932,3.506788 3.39364,-0.374206 -0.60664,-1.563758 -2.37985,-3.666402 0.5172,-2.951161 2.47216,-1.320669 -2.51209,-4.107233 0.20507,-2.452128 2.73205,-0.320343 3.10164,-5.350854 -0.24186,-3.810278 0.0932,-1.091628 5.51164,-0.797145 2.88585,-2.84048 2.62303,1.808402 5.06734,-1.339484 3.14198,-3.721247 -0.18766,-2.29149 1.31028,-2.280597 1.54908,-0.184478 2.40724,2.199921 7.83051,-4.031612 4.0522,-5.540829 -1.40562,-0.358341 -2.48205,-2.695603 -0.59501,-0.934122 2.01655,2.798664 6.68608,2.498086 4.91228,-1.690328 0.96519,-2.206373 2.0813,1.356948 3.00152,-0.677628 3.84444,-1.759323 -3.08011,4.350473 1.82957,3.835595 2.95839,0.490646 1.62797,-3.437994 1.60658,-3.151878 1.96178,1.324856 5.39454,1.992427 5.52114,-0.986237 0.60124,1.408442 2.65162,4.856641 3.15675,1.326026 0.87676,-2.997691 2.0164,2.829106 4.25537,2.051418 2.72334,0.210406 5.67214,3.934086 8.0093,2.288081 -0.38081,-1.472483 -5.29374,-2.925155 -1.34163,-1.685223 2.45935,2.154333 5.48236,2.649156 8.49086,1.415606 1.75514,0.658142 -5.89063,1.756802 -2.43263,3.379825 2.50333,-0.271305 5.72102,-4.639424 7.2947,-3.232657 -3.20381,1.627907 -4.5109,7.388574 -0.65035,9.027152 4.57933,1.904964 -0.15851,8.547607 3.66397,11.19907 1.15444,0.258042 4.8137,1.473364 1.81933,0.375106 -4.11143,-0.07579 -1.4901,6.02407 1.52693,3.683106 -1.97011,0.326807 -4.96075,3.991147 -1.14727,3.682308 2.041,-0.547925 2.52896,0.262495 0.29867,0.400585 -2.79224,0.264702 -3.97061,6.639457 -0.17774,5.527263 -3.1714,0.633817 -4.59405,4.159002 -2.99372,6.738798 -1.92981,3.045772 -7.35593,5.732837 -3.5248,9.839221 1.62375,0.916563 1.07998,5.309588 0.0249,3.607666 0.57246,-4.85528 -4.95596,-5.726248 -7.32516,-2.279138 -2.05629,1.405931 -2.22443,5.899237 -5.12732,4.077025 -2.68913,0.848155 -2.83754,5.594329 -6.10562,5.223174 1.01685,-1.484023 3.21294,-4.688565 -0.34479,-3.297753 -4.46206,0.492146 -7.50963,4.660118 -11.91523,5.320586 z m -0.10651,-3.56601 c 1.67272,0.66289 5.86604,-0.539442 1.97964,-0.913917 -1.73046,-1.291839 -7.52247,0.417223 -1.97964,0.913917 z M 162.04058,72.195202 c -0.0122,-2.144968 -2.13516,-8.254545 -4.37841,-5.145686 -0.0764,2.57976 2.45871,4.079499 4.37841,5.145686 z m 51.33707,-5.167074 c 2.29463,-0.235645 0.6477,-3.56854 0.20391,-0.408892 -0.068,0.136297 -0.13595,0.272593 -0.20391,0.408892 z m -56.6625,-1.055248 c 1.72718,-2.843382 1.72415,-9.184401 -1.81557,-10.011492 0.0134,-1.367636 1.92702,-5.734939 -0.71264,-2.936363 -2.46234,3.449719 0.64903,7.238935 1.74181,10.57024 0.21267,0.809165 0.53216,1.582225 0.7864,2.377615 z M 216.6794,49.998614 c 0.88403,0.57794 0.17798,-0.800603 0,0 z m -2.73372,-10.334149 c 2.48415,-1.583151 -2.46618,-8.159409 -2.1887,-4.07085 0.66628,1.392657 1.582,2.646404 2.1887,4.07085 z m -4.40234,-6.950079 c 0.0703,-1.351927 -1.39698,-1.005041 0,0 z m -1.84615,-2.03772 c 2.00299,-2.036909 -3.94883,-1.906188 -0.34161,-0.328486 0.11387,0.109495 0.22774,0.21899 0.34161,0.328486 z m 1.45561,-1.564678 c 2.22975,-1.380749 -1.69095,-1.544871 0,0 z m -5.82246,-2.074107 c -0.16407,-1.002502 -0.89108,0.628242 0,0 z"
         inkscape:connector-curvature="0" />
      <ellipse
         style="fill:url(#radialGradient13306);fill-opacity:1"
         id="path13143"
         transform="matrix(-4.7222223,0,0,5,455.66667,-149)"
         inkscape:label="#path1905"
         cx="57"
         cy="40.5"
         rx="9"
         ry="8.5" />
    </g>
  </g>
</svg>
